<svg width="68" height="68" fill="none" xmlns="http://www.w3.org/2000/svg"><g opacity=".5" filter="url(#filter0_f_1_646)"><mask id="a" style="mask-type:alpha" maskUnits="userSpaceOnUse" x="0" y="3" width="65" height="62"><path fill-rule="evenodd" clip-rule="evenodd" d="M39.975 3.52c2.51.785 3.105 1.163 3.56 2.264.387.934 2.94 2.962 2.94 2.335 0-.17-.142-.398-.316-.506-.37-.229-1.38-3.455-1.151-3.683.32-.32 2.81 1.63 3.764 2.947.774 1.068.972 1.649.9 2.64-.077 1.08.054 1.383.875 2.017l.966.745-.114-1.635c-.064-.9.074-2.31.304-3.134l.42-1.498 1.076 2.254c1.129 2.363 1.288 3.486.756 5.34-.293 1.02-.204 1.3 1.013 3.167.734 1.126 1.355 2.047 1.38 2.047.025 0-.001-.621-.058-1.38-.056-.76.178-2.26.52-3.332l.624-1.95.399.975c.22.536.628 1.893.907 3.015.546 2.19.276 4.06-.73 5.067-.405.404-.41.634-.04 1.559.24.596.54 1.377.667 1.734.19.53.334.351.788-.975.305-.894.935-2.18 1.399-2.858.805-1.177.853-1.199 1.043-.488.315 1.177.238 4.852-.13 6.175-.183.662-.75 1.54-1.26 1.95-.871.701-.916.858-.76 2.63l.167 1.884 1.062-1.559c1.203-1.768 3.405-3.986 3.405-3.432 0 .203-.224 1.433-.498 2.735-.613 2.913-1.698 4.83-3.188 5.633-.956.514-1.167.837-1.35 2.056-.119.795-.3 1.682-.403 1.972-.12.34.149.226.758-.321 1.022-.919 4.847-3.54 5.166-3.54.107 0-.486 1.32-1.318 2.932-1.615 3.127-3.07 4.643-5.017 5.23-.911.276-1.34.717-2.158 2.215l-1.02 1.872 1.774-.96c.976-.53 2.641-1.224 3.7-1.545 2.229-.674 2.226-.621-.118 2.093-2.01 2.328-4.01 3.505-6.153 3.62-1.44.077-1.816.257-2.975 1.415l-1.326 1.327 1.102-.316c.607-.175 2.432-.408 4.057-.52l2.954-.203-1.787 1.326c-2.651 1.966-4.895 2.732-7.475 2.552-1.888-.132-2.32-.04-4.056.864l-1.944 1.011 1.456.083c1.659.093 7.144 1.4 7.144 1.7 0 .353-3.714.98-5.799.98-1.945 0-3.863-.55-4.914-1.408-.404-.33-.905-.3-2.613.153-1.161.309-1.88.57-1.596.583.652.028 7.122 3.177 7.122 3.466 0 .332-4.508-.165-6.433-.71-1.01-.284-2.233-.949-2.964-1.61-.685-.618-1.565-1.124-1.956-1.124-.392 0-1.383.513-2.204 1.14-1.832 1.398-3.774 2-7.302 2.263L20.313 65l2.808-1.453c1.545-.8 3.416-1.636 4.158-1.858l1.35-.404-2.197-.553-2.196-.553-1.202.795c-1.6 1.059-4.255 1.393-7.29.916-1.326-.208-2.5-.467-2.609-.575-.422-.422 7.417-2.386 8.024-2.01.16.098.291.105.291.013 0-.091-.895-.69-1.988-1.331-1.843-1.08-2.074-1.138-3.135-.788-1.904.629-4.798.185-7.714-1.182l-2.6-1.22 1.3-.3c1.41-.325 6.098-.168 7.15.24.378.147-.007-.429-.921-1.377-1.464-1.518-1.702-1.64-3.494-1.803-2.358-.214-4.05-1.162-6.462-3.624-1.379-1.406-1.633-1.81-1.137-1.804 1.304.016 3.615.708 5.415 1.623l1.855.943-1.04-1.912c-.744-1.366-1.273-1.96-1.854-2.08-.447-.094-1.483-.598-2.302-1.122-1.226-.784-1.757-1.47-3.006-3.89C.682 38.078 0 36.664 0 36.552c0-.303 3.89 2.351 5.162 3.52 1.089 1.003 1.097 1.005.909.2a38.909 38.909 0 01-.4-2.113c-.165-1.031-.416-1.4-1.214-1.787-2.035-.987-3.14-3.16-3.963-7.8l-.202-1.138 1.891 1.96c1.04 1.078 2.127 2.446 2.414 3.04l.523 1.078.141-2.218c.134-2.106.096-2.256-.763-2.978-.497-.419-1.054-1.3-1.237-1.959-.396-1.428-.45-6.452-.07-6.687.402-.248 2.656 4.131 2.678 5.203.016.75.164.547.743-1.014l.722-1.95-.64-1.106c-.415-.715-.626-1.634-.596-2.6.051-1.68 1.057-5.23 1.51-5.329.488-.107 1.116 2.087 1.144 3.997l.026 1.788.945-1.425c.886-1.335.934-1.574.766-3.789-.172-2.289-.138-2.435 1.074-4.588l1.252-2.223.276 1.787c.151.983.207 2.332.125 2.996l-.151 1.208 1.264-1.016c1-.803 1.187-1.11.894-1.462-.706-.851.233-2.829 2.195-4.622.995-.91 1.956-1.654 2.134-1.654.497 0-.007 1.925-.921 3.514l-.806 1.4 1.338-.683c.798-.406 1.473-1.038 1.672-1.563.565-1.492 1.628-2.328 3.815-3.004 1.154-.356 2.156-.591 2.226-.522.295.296-3.296 3.806-4.08 3.987-.869.2-3.62 1.656-3.62 1.914 0 .078.408.06.908-.04s1.757.039 2.794.31c3.507.916 2.996 1.225-2.305 1.396-3.868.124-4.215.188-4.943.915l-.782.78 1.27-.294c1.497-.347 3.833-.4 4.14-.095.355.357-4.664 2.467-6.26 2.633-1.44.149-2.114.625-2.96 2.092-.267.463-.043.43 1.391-.208 2.056-.914 3.604-1.307 3.447-.874-.22.605-4.682 4.051-6.013 4.644-.883.393-1.462.91-1.673 1.494-.178.49-.44 1.184-.581 1.542-.197.495.03.4.95-.404 1.031-.9 3.45-2.359 3.909-2.359.441 0-3.35 5.098-4.657 6.26-1.488 1.324-1.556 1.46-1.724 3.49-.152 1.854-.13 1.976.184.997.448-1.4 4.27-5.49 3.967-4.247-.582 2.389-2.01 5.767-2.971 7.026-1.12 1.468-1.343 2.782-.79 4.675.229.78.248.768.487-.325.138-.626.784-2.088 1.437-3.25l1.187-2.113.106 1.625c.174 2.666-.27 5.578-1.1 7.22l-.782 1.543.943 1.956.942 1.956.026-2.134c.015-1.175.268-2.93.561-3.9l.535-1.766.795 3.575c.682 3.067.746 3.824.45 5.324-.307 1.545-.274 1.852.28 2.63 1.328 1.865 1.552 1.8 1.225-.36-.166-1.093-.205-2.497-.088-3.121l.213-1.135 1.505 2.556c1.254 2.13 1.528 2.893 1.64 4.575.108 1.616.273 2.107.83 2.465l1.541.995.848.548-.756-1.55c-.416-.854-.891-2.172-1.056-2.93l-.3-1.378.858.618c1.873 1.35 4.413 4.532 4.775 5.981.222.89.694 1.204 2.454 1.629.835.201.832.19-.252-.96-1.105-1.172-2.216-2.997-1.972-3.241.073-.073 1.07.246 2.218.708 2.245.904 4.112 2.438 4.409 3.623.163.65.387.736 1.937.736 1.3 0 1.753-.12 1.753-.463 0-.984 1.84-2.597 4.177-3.662 1.325-.604 2.473-1.033 2.552-.954.256.257-.836 2.061-1.985 3.28l-1.123 1.19 1.033-.224c1.988-.432 2.496-.747 2.496-1.548 0-.424.421-1.342.937-2.04 1.191-1.608 4.588-4.929 4.588-4.483 0 .694-1.05 3.896-1.517 4.626-.694 1.085-.441 1.112 1.117.116 1.313-.839 1.37-.944 1.364-2.5-.006-1.308.295-2.215 1.537-4.636 1.366-2.664 1.576-2.926 1.825-2.275.27.705.077 4.166-.298 5.362-.099.316.41-.058 1.13-.83 1.134-1.218 1.267-1.513 1-2.216-.17-.446-.308-1.55-.308-2.453 0-1.85.998-7.09 1.35-7.09.442 0 1.328 4.901 1.121 6.198-.112.702-.121 1.277-.02 1.277.1 0 .617-.927 1.147-2.06l.964-2.06-.819-1.466c-.675-1.208-.856-2.08-1.033-4.979-.17-2.781-.13-3.461.193-3.261.461.285 2.601 4.602 2.66 5.367.06.774.53-1.324.573-2.558.029-.824-.262-1.472-1.152-2.558-1.096-1.336-3.785-6.886-3.489-7.198.318-.334 3.305 2.622 4.106 4.062l.89 1.598-.18-1.625c-.293-2.665-.39-2.906-1.442-3.527-.859-.507-5.52-6.33-5.52-6.896 0-.41 3.475 1.838 4.658 3.012l1.245 1.236-.702-1.785c-.685-1.74-1.101-2.262-1.811-2.273-.782-.01-6.898-4.729-6.565-5.063.237-.236 3.095.722 4.333 1.452.635.375 1.229.681 1.319.681.09 0-.308-.658-.886-1.462-.937-1.305-1.188-1.463-2.32-1.463-1.505 0-6.838-2.187-6.534-2.68.212-.342 3.63-.153 4.83.268.538.189.501.075-.219-.675-.816-.852-1.015-.9-3.575-.867-1.49.02-3.587-.082-4.66-.224-1.935-.257-1.943-.262-.975-.664 1.53-.634 3.963-1.01 5.12-.79l1.055.2-.881-.71c-.485-.39-1.612-.927-2.504-1.192-.892-.265-2.066-.855-2.608-1.312-1.028-.865-2.45-2.685-2.249-2.877.064-.06.921.141 1.904.449z" fill="url(#paint0_linear_1_646)"/></mask><g mask="url(#a)"><path transform="matrix(-1 0 0 1 75.249 -4.475)" fill="url(#paint1_linear_1_646)" d="M0 0h42.576v78.001H0z"/></g></g><mask id="b" style="mask-type:alpha" maskUnits="userSpaceOnUse" x="0" y="3" width="65" height="62"><path fill-rule="evenodd" clip-rule="evenodd" d="M39.975 3.52c2.51.785 3.105 1.163 3.56 2.264.387.934 2.94 2.962 2.94 2.335 0-.17-.142-.398-.316-.506-.37-.229-1.38-3.455-1.151-3.683.32-.32 2.81 1.63 3.764 2.947.774 1.068.972 1.649.9 2.64-.077 1.08.054 1.383.875 2.017l.966.745-.114-1.635c-.064-.9.074-2.31.304-3.134l.42-1.498 1.076 2.254c1.129 2.363 1.288 3.486.756 5.34-.293 1.02-.204 1.3 1.013 3.167.734 1.126 1.355 2.047 1.38 2.047.025 0-.001-.621-.058-1.38-.056-.76.178-2.26.52-3.332l.624-1.95.399.975c.22.536.628 1.893.907 3.015.546 2.19.276 4.06-.73 5.067-.405.404-.41.634-.04 1.559.24.596.54 1.377.667 1.734.19.53.334.351.788-.975.305-.894.935-2.18 1.399-2.858.805-1.177.853-1.199 1.043-.488.315 1.177.238 4.852-.13 6.175-.183.662-.75 1.54-1.26 1.95-.871.701-.916.858-.76 2.63l.167 1.884 1.062-1.559c1.203-1.768 3.405-3.986 3.405-3.432 0 .203-.224 1.433-.498 2.735-.613 2.913-1.698 4.83-3.188 5.633-.956.514-1.167.837-1.35 2.056-.119.795-.3 1.682-.403 1.972-.12.34.149.226.758-.321 1.022-.919 4.847-3.54 5.166-3.54.107 0-.486 1.32-1.318 2.932-1.615 3.127-3.07 4.643-5.017 5.23-.911.276-1.34.717-2.158 2.215l-1.02 1.872 1.774-.96c.976-.53 2.641-1.224 3.7-1.545 2.229-.674 2.226-.621-.118 2.093-2.01 2.328-4.01 3.505-6.153 3.62-1.44.077-1.816.257-2.975 1.415l-1.326 1.327 1.102-.316c.607-.175 2.432-.408 4.057-.52l2.954-.203-1.787 1.326c-2.651 1.966-4.895 2.732-7.475 2.552-1.888-.132-2.32-.04-4.056.864l-1.944 1.011 1.456.083c1.659.093 7.144 1.4 7.144 1.7 0 .353-3.714.98-5.799.98-1.945 0-3.863-.55-4.914-1.408-.404-.33-.905-.3-2.613.153-1.161.309-1.88.57-1.596.583.652.028 7.122 3.177 7.122 3.466 0 .332-4.508-.165-6.433-.71-1.01-.284-2.233-.949-2.964-1.61-.685-.618-1.565-1.124-1.956-1.124-.392 0-1.383.513-2.204 1.14-1.832 1.398-3.774 2-7.302 2.263L20.313 65l2.808-1.453c1.545-.8 3.416-1.636 4.158-1.858l1.35-.404-2.197-.553-2.196-.553-1.202.795c-1.6 1.059-4.255 1.393-7.29.916-1.326-.208-2.5-.467-2.609-.575-.422-.422 7.417-2.386 8.024-2.01.16.098.291.105.291.013 0-.091-.895-.69-1.988-1.331-1.843-1.08-2.074-1.138-3.135-.788-1.904.629-4.798.185-7.714-1.182l-2.6-1.22 1.3-.3c1.41-.325 6.098-.168 7.15.24.378.147-.007-.429-.921-1.377-1.464-1.518-1.702-1.64-3.494-1.803-2.358-.214-4.05-1.162-6.462-3.624-1.379-1.406-1.633-1.81-1.137-1.804 1.304.016 3.615.708 5.415 1.623l1.855.943-1.04-1.912c-.744-1.366-1.273-1.96-1.854-2.08-.447-.094-1.483-.598-2.302-1.122-1.226-.784-1.757-1.47-3.006-3.89C.682 38.078 0 36.664 0 36.552c0-.303 3.89 2.351 5.162 3.52 1.089 1.003 1.097 1.005.909.2a38.909 38.909 0 01-.4-2.113c-.165-1.031-.416-1.4-1.214-1.787-2.035-.987-3.14-3.16-3.963-7.8l-.202-1.138 1.891 1.96c1.04 1.078 2.127 2.446 2.414 3.04l.523 1.078.141-2.218c.134-2.106.096-2.256-.763-2.978-.497-.419-1.054-1.3-1.237-1.959-.396-1.428-.45-6.452-.07-6.687.402-.248 2.656 4.131 2.678 5.203.016.75.164.547.743-1.014l.722-1.95-.64-1.106c-.415-.715-.626-1.634-.596-2.6.051-1.68 1.057-5.23 1.51-5.329.488-.107 1.116 2.087 1.144 3.997l.026 1.788.945-1.425c.886-1.335.934-1.574.766-3.789-.172-2.289-.138-2.435 1.074-4.588l1.252-2.223.276 1.787c.151.983.207 2.332.125 2.996l-.151 1.208 1.264-1.016c1-.803 1.187-1.11.894-1.462-.706-.851.233-2.829 2.195-4.622.995-.91 1.956-1.654 2.134-1.654.497 0-.007 1.925-.921 3.514l-.806 1.4 1.338-.683c.798-.406 1.473-1.038 1.672-1.563.565-1.492 1.628-2.328 3.815-3.004 1.154-.356 2.156-.591 2.226-.522.295.296-3.296 3.806-4.08 3.987-.869.2-3.62 1.656-3.62 1.914 0 .078.408.06.908-.04s1.757.039 2.794.31c3.507.916 2.996 1.225-2.305 1.396-3.868.124-4.215.188-4.943.915l-.782.78 1.27-.294c1.497-.347 3.833-.4 4.14-.095.355.357-4.664 2.467-6.26 2.633-1.44.149-2.114.625-2.96 2.092-.267.463-.043.43 1.391-.208 2.056-.914 3.604-1.307 3.447-.874-.22.605-4.682 4.051-6.013 4.644-.883.393-1.462.91-1.673 1.494-.178.49-.44 1.184-.581 1.542-.197.495.03.4.95-.404 1.031-.9 3.45-2.359 3.909-2.359.441 0-3.35 5.098-4.657 6.26-1.488 1.324-1.556 1.46-1.724 3.49-.152 1.854-.13 1.976.184.997.448-1.4 4.27-5.49 3.967-4.247-.582 2.389-2.01 5.767-2.971 7.026-1.12 1.468-1.343 2.782-.79 4.675.229.78.248.768.487-.325.138-.626.784-2.088 1.437-3.25l1.187-2.113.106 1.625c.174 2.666-.27 5.578-1.1 7.22l-.782 1.543.943 1.956.942 1.956.026-2.134c.015-1.175.268-2.93.561-3.9l.535-1.766.795 3.575c.682 3.067.746 3.824.45 5.324-.307 1.545-.274 1.852.28 2.63 1.328 1.865 1.552 1.8 1.225-.36-.166-1.093-.205-2.497-.088-3.121l.213-1.135 1.505 2.556c1.254 2.13 1.528 2.893 1.64 4.575.108 1.616.273 2.107.83 2.465l1.541.995.848.548-.756-1.55c-.416-.854-.891-2.172-1.056-2.93l-.3-1.378.858.618c1.873 1.35 4.413 4.532 4.775 5.981.222.89.694 1.204 2.454 1.629.835.201.832.19-.252-.96-1.105-1.172-2.216-2.997-1.972-3.241.073-.073 1.07.246 2.218.708 2.245.904 4.112 2.438 4.409 3.623.163.65.387.736 1.937.736 1.3 0 1.753-.12 1.753-.463 0-.984 1.84-2.597 4.177-3.662 1.325-.604 2.473-1.033 2.552-.954.256.257-.836 2.061-1.985 3.28l-1.123 1.19 1.033-.224c1.988-.432 2.496-.747 2.496-1.548 0-.424.421-1.342.937-2.04 1.191-1.608 4.588-4.929 4.588-4.483 0 .694-1.05 3.896-1.517 4.626-.694 1.085-.441 1.112 1.117.116 1.313-.839 1.37-.944 1.364-2.5-.006-1.308.295-2.215 1.537-4.636 1.366-2.664 1.576-2.926 1.825-2.275.27.705.077 4.166-.298 5.362-.099.316.41-.058 1.13-.83 1.134-1.218 1.267-1.513 1-2.216-.17-.446-.308-1.55-.308-2.453 0-1.85.998-7.09 1.35-7.09.442 0 1.328 4.901 1.121 6.198-.112.702-.121 1.277-.02 1.277.1 0 .617-.927 1.147-2.06l.964-2.06-.819-1.466c-.675-1.208-.856-2.08-1.033-4.979-.17-2.781-.13-3.461.193-3.261.461.285 2.601 4.602 2.66 5.367.06.774.53-1.324.573-2.558.029-.824-.262-1.472-1.152-2.558-1.096-1.336-3.785-6.886-3.489-7.198.318-.334 3.305 2.622 4.106 4.062l.89 1.598-.18-1.625c-.293-2.665-.39-2.906-1.442-3.527-.859-.507-5.52-6.33-5.52-6.896 0-.41 3.475 1.838 4.658 3.012l1.245 1.236-.702-1.785c-.685-1.74-1.101-2.262-1.811-2.273-.782-.01-6.898-4.729-6.565-5.063.237-.236 3.095.722 4.333 1.452.635.375 1.229.681 1.319.681.09 0-.308-.658-.886-1.462-.937-1.305-1.188-1.463-2.32-1.463-1.505 0-6.838-2.187-6.534-2.68.212-.342 3.63-.153 4.83.268.538.189.501.075-.219-.675-.816-.852-1.015-.9-3.575-.867-1.49.02-3.587-.082-4.66-.224-1.935-.257-1.943-.262-.975-.664 1.53-.634 3.963-1.01 5.12-.79l1.055.2-.881-.71c-.485-.39-1.612-.927-2.504-1.192-.892-.265-2.066-.855-2.608-1.312-1.028-.865-2.45-2.685-2.249-2.877.064-.06.921.141 1.904.449z" fill="url(#paint2_linear_1_646)"/></mask><g mask="url(#b)"><path transform="matrix(-1 0 0 1 75.249 -4.475)" fill="url(#paint3_linear_1_646)" d="M0 0h42.576v78.001H0z"/></g><defs><linearGradient id="paint0_linear_1_646" x1="44.197" y1="67.023" x2="23.361" y2="3.051" gradientUnits="userSpaceOnUse"><stop stop-color="#FFA444"/><stop offset="1" stop-color="#F94D32"/></linearGradient><linearGradient id="paint1_linear_1_646" x1="13.558" y1="80.547" x2="53.543" y2="16.481" gradientUnits="userSpaceOnUse"><stop stop-color="#FFA444"/><stop offset="1" stop-color="#F94D32"/></linearGradient><linearGradient id="paint2_linear_1_646" x1="44.197" y1="67.023" x2="23.361" y2="3.051" gradientUnits="userSpaceOnUse"><stop stop-color="#FFA444"/><stop offset="1" stop-color="#F94D32"/></linearGradient><linearGradient id="paint3_linear_1_646" x1="13.558" y1="80.547" x2="53.543" y2="16.481" gradientUnits="userSpaceOnUse"><stop stop-color="#FFA444"/><stop offset="1" stop-color="#F94D32"/></linearGradient><filter id="filter0_f_1_646" x="29.673" y="0" width="38.175" height="68" filterUnits="userSpaceOnUse" color-interpolation-filters="sRGB"><feFlood flood-opacity="0" result="BackgroundImageFix"/><feBlend in="SourceGraphic" in2="BackgroundImageFix" result="shape"/><feGaussianBlur stdDeviation="1.5" result="effect1_foregroundBlur_1_646"/></filter></defs></svg>