<svg width="68" height="68" fill="none" xmlns="http://www.w3.org/2000/svg"><g opacity=".5" filter="url(#filter0_f_1_639)"><mask id="a" style="mask-type:alpha" maskUnits="userSpaceOnUse" x="3" y="3" width="65" height="62"><path fill-rule="evenodd" clip-rule="evenodd" d="M27.873 3.52c-2.51.785-3.104 1.163-3.56 2.264-.387.934-2.94 2.962-2.94 2.335 0-.17.142-.398.316-.506.37-.229 1.38-3.455 1.152-3.683-.32-.32-2.811 1.63-3.765 2.947-.774 1.068-.972 1.649-.9 2.64.078 1.08-.053 1.383-.875 2.017l-.966.745.115-1.635c.063-.9-.074-2.31-.305-3.134l-.42-1.498-1.076 2.254c-1.128 2.363-1.287 3.486-.756 5.34.293 1.02.204 1.3-1.013 3.167-.734 1.126-1.354 2.047-1.38 2.047-.024 0 .002-.621.058-1.38.057-.76-.178-2.26-.52-3.332l-.624-1.95-.399.975c-.219.536-.627 1.893-.907 3.015-.545 2.19-.276 4.06.731 5.067.404.404.41.634.04 1.559-.24.596-.54 1.377-.668 1.734-.19.53-.334.351-.787-.975-.306-.894-.935-2.18-1.4-2.858-.805-1.177-.852-1.199-1.043-.488-.315 1.177-.238 4.852.13 6.175.184.662.75 1.54 1.26 1.95.872.701.917.858.76 2.63l-.166 1.884-1.062-1.559c-1.204-1.768-3.405-3.986-3.405-3.432 0 .203.223 1.433.497 2.735.613 2.913 1.698 4.83 3.188 5.633.956.514 1.167.837 1.35 2.056.12.795.3 1.682.403 1.972.12.34-.148.226-.757-.321-1.023-.919-4.848-3.54-5.166-3.54-.108 0 .485 1.32 1.318 2.932 1.615 3.127 3.069 4.643 5.017 5.23.91.276 1.34.717 2.157 2.215l1.02 1.872-1.774-.96c-.975-.53-2.64-1.224-3.7-1.545-2.228-.674-2.225-.621.118 2.093 2.01 2.328 4.01 3.505 6.153 3.62 1.44.077 1.816.257 2.975 1.415l1.326 1.327-1.102-.316c-.606-.175-2.432-.408-4.057-.52L9.51 53.53l1.788 1.326c2.65 1.966 4.894 2.732 7.475 2.552 1.887-.132 2.32-.04 4.056.864l1.943 1.011-1.456.083c-1.658.093-7.143 1.4-7.143 1.7 0 .353 3.713.98 5.798.98 1.946 0 3.864-.55 4.915-1.408.404-.33.904-.3 2.612.153 1.162.309 1.88.57 1.596.583-.652.028-7.121 3.177-7.121 3.466 0 .332 4.507-.165 6.432-.71 1.01-.284 2.233-.949 2.965-1.61.684-.618 1.564-1.124 1.956-1.124.39 0 1.383.513 2.203 1.14 1.832 1.398 3.774 2 7.302 2.263l2.705.201-2.809-1.453c-1.544-.8-3.415-1.636-4.157-1.858l-1.35-.404 2.196-.553 2.197-.553 1.201.795c1.6 1.059 4.256 1.393 7.29.916 1.327-.208 2.5-.467 2.609-.575.422-.422-7.416-2.386-8.024-2.01-.16.098-.29.105-.29.013 0-.091.894-.69 1.988-1.331 1.842-1.08 2.073-1.138 3.135-.788 1.904.629 4.797.185 7.714-1.182l2.6-1.22-1.3-.3c-1.41-.325-6.099-.168-7.15.24-.379.147.006-.429.92-1.377 1.464-1.518 1.702-1.64 3.494-1.803 2.359-.214 4.05-1.162 6.462-3.624 1.379-1.406 1.633-1.81 1.138-1.804-1.305.016-3.615.708-5.415 1.623l-1.855.943 1.04-1.912c.744-1.366 1.273-1.96 1.853-2.08.447-.094 1.483-.598 2.302-1.122 1.227-.784 1.757-1.47 3.007-3.89.834-1.614 1.516-3.028 1.516-3.14 0-.303-3.89 2.351-5.161 3.52-1.09 1.003-1.097 1.005-.91.2.105-.447.284-1.398.4-2.113.166-1.031.417-1.4 1.214-1.787 2.036-.987 3.14-3.16 3.963-7.8l.202-1.138-1.891 1.96c-1.04 1.078-2.127 2.446-2.414 3.04l-.523 1.078-.141-2.218c-.134-2.106-.096-2.256.763-2.978.497-.419 1.054-1.3 1.237-1.959.397-1.428.45-6.452.07-6.687-.401-.248-2.656 4.131-2.678 5.203-.015.75-.163.547-.742-1.014l-.723-1.95.641-1.106c.414-.715.625-1.634.595-2.6-.05-1.68-1.057-5.23-1.51-5.329-.488-.107-1.115 2.087-1.143 3.997l-.027 1.788-.945-1.425c-.885-1.335-.934-1.574-.766-3.789.173-2.289.139-2.435-1.074-4.588l-1.252-2.223-.275 1.787c-.152.983-.208 2.332-.125 2.996l.15 1.208-1.264-1.016c-1-.803-1.187-1.11-.894-1.462.706-.851-.233-2.829-2.195-4.622-.995-.91-1.955-1.654-2.134-1.654-.497 0 .008 1.925.922 3.514l.805 1.4-1.338-.683c-.797-.406-1.473-1.038-1.672-1.563-.565-1.492-1.627-2.328-3.815-3.004-1.154-.356-2.156-.591-2.225-.522-.296.296 3.296 3.806 4.079 3.987.87.2 3.621 1.656 3.621 1.914 0 .078-.409.06-.909-.04s-1.757.039-2.794.31c-3.506.916-2.995 1.225 2.305 1.396 3.869.124 4.216.188 4.943.915l.783.78-1.27-.294c-1.498-.347-3.834-.4-4.14-.095-.356.357 4.663 2.467 6.26 2.633 1.44.149 2.114.625 2.959 2.092.267.463.044.43-1.39-.208-2.056-.914-3.605-1.307-3.447-.874.22.605 4.682 4.051 6.013 4.644.883.393 1.461.91 1.673 1.494.177.49.439 1.184.58 1.542.197.495-.03.4-.95-.404-1.03-.9-3.45-2.359-3.908-2.359-.442 0 3.35 5.098 4.657 6.26 1.488 1.324 1.555 1.46 1.723 3.49.153 1.854.13 1.976-.183.997-.45-1.4-4.271-5.49-3.968-4.247.582 2.389 2.01 5.767 2.972 7.026 1.12 1.468 1.342 2.782.79 4.675-.23.78-.248.768-.488-.325-.138-.626-.784-2.088-1.437-3.25l-1.186-2.113-.107 1.625c-.174 2.666.27 5.578 1.101 7.22l.781 1.543-.942 1.956-.943 1.956-.026-2.134c-.015-1.175-.267-2.93-.561-3.9l-.534-1.766-.796 3.575c-.682 3.067-.746 3.824-.449 5.324.306 1.545.274 1.852-.28 2.63-1.329 1.865-1.552 1.8-1.225-.36.165-1.093.205-2.497.088-3.121l-.213-1.135-1.505 2.556c-1.255 2.13-1.528 2.893-1.64 4.575-.109 1.616-.274 2.107-.83 2.465l-1.542.995-.848.548.757-1.55c.415-.854.89-2.172 1.056-2.93l.3-1.378-.859.618c-1.872 1.35-4.413 4.532-4.774 5.981-.223.89-.695 1.204-2.455 1.629-.835.201-.831.19.252-.96 1.106-1.172 2.216-2.997 1.972-3.241-.072-.073-1.07.246-2.218.708-2.244.904-4.111 2.438-4.409 3.623-.163.65-.387.736-1.937.736-1.299 0-1.752-.12-1.752-.463 0-.984-1.84-2.597-4.178-3.662-1.324-.604-2.473-1.033-2.552-.954-.256.257.836 2.061 1.986 3.28l1.122 1.19-1.033-.224c-1.987-.432-2.495-.747-2.495-1.548 0-.424-.422-1.342-.938-2.04-1.19-1.608-4.587-4.929-4.587-4.483 0 .694 1.049 3.896 1.516 4.626.694 1.085.442 1.112-1.116.116-1.313-.839-1.37-.944-1.364-2.5.005-1.308-.296-2.215-1.537-4.636-1.367-2.664-1.577-2.926-1.825-2.275-.27.705-.077 4.166.297 5.362.1.316-.409-.058-1.13-.83-1.134-1.218-1.267-1.513-1-2.216.17-.446.309-1.55.309-2.453 0-1.85-.999-7.09-1.351-7.09-.442 0-1.328 4.901-1.121 6.198.112.702.122 1.277.02 1.277-.1 0-.616-.927-1.147-2.06l-.964-2.06.819-1.466c.675-1.208.856-2.08 1.034-4.979.17-2.781.13-3.461-.194-3.261-.46.285-2.6 4.602-2.66 5.367-.06.774-.53-1.324-.573-2.558-.029-.824.263-1.472 1.153-2.558 1.095-1.336 3.784-6.886 3.488-7.198-.317-.334-3.305 2.622-4.106 4.062l-.889 1.598.18-1.625c.292-2.665.39-2.906 1.441-3.527.86-.507 5.52-6.33 5.52-6.896 0-.41-3.474 1.838-4.658 3.012l-1.245 1.236.703-1.785c.684-1.74 1.1-2.262 1.81-2.273.782-.01 6.899-4.729 6.565-5.063-.236-.236-3.095.722-4.332 1.452-.636.375-1.23.681-1.32.681-.09 0 .309-.658.886-1.462.937-1.305 1.188-1.463 2.32-1.463 1.505 0 6.838-2.187 6.534-2.68-.212-.342-3.63-.153-4.83.268-.538.189-.5.075.219-.675.817-.852 1.015-.9 3.575-.867 1.49.02 3.588-.082 4.66-.224 1.936-.257 1.943-.262.975-.664-1.529-.634-3.963-1.01-5.12-.79l-1.055.2.882-.71c.484-.39 1.611-.927 2.503-1.192.892-.265 2.066-.855 2.609-1.312 1.028-.865 2.45-2.685 2.248-2.877-.064-.06-.921.141-1.904.449z" fill="url(#paint0_linear_1_639)"/></mask><g mask="url(#a)"><path fill="url(#paint1_linear_1_639)" d="M-7.4-4.475h42.576v78.001H-7.4z"/></g></g><mask id="b" style="mask-type:alpha" maskUnits="userSpaceOnUse" x="3" y="3" width="65" height="62"><path fill-rule="evenodd" clip-rule="evenodd" d="M27.873 3.52c-2.51.785-3.104 1.163-3.56 2.264-.387.934-2.94 2.962-2.94 2.335 0-.17.142-.398.316-.506.37-.229 1.38-3.455 1.152-3.683-.32-.32-2.811 1.63-3.765 2.947-.774 1.068-.972 1.649-.9 2.64.078 1.08-.053 1.383-.875 2.017l-.966.745.115-1.635c.063-.9-.074-2.31-.305-3.134l-.42-1.498-1.076 2.254c-1.128 2.363-1.287 3.486-.756 5.34.293 1.02.204 1.3-1.013 3.167-.734 1.126-1.354 2.047-1.38 2.047-.024 0 .002-.621.058-1.38.057-.76-.178-2.26-.52-3.332l-.624-1.95-.399.975c-.219.536-.627 1.893-.907 3.015-.545 2.19-.276 4.06.731 5.067.404.404.41.634.04 1.559-.24.596-.54 1.377-.668 1.734-.19.53-.334.351-.787-.975-.306-.894-.935-2.18-1.4-2.858-.805-1.177-.852-1.199-1.043-.488-.315 1.177-.238 4.852.13 6.175.184.662.75 1.54 1.26 1.95.872.701.917.858.76 2.63l-.166 1.884-1.062-1.559c-1.204-1.768-3.405-3.986-3.405-3.432 0 .203.223 1.433.497 2.735.613 2.913 1.698 4.83 3.188 5.633.956.514 1.167.837 1.35 2.056.12.795.3 1.682.403 1.972.12.34-.148.226-.757-.321-1.023-.919-4.848-3.54-5.166-3.54-.108 0 .485 1.32 1.318 2.932 1.615 3.127 3.069 4.643 5.017 5.23.91.276 1.34.717 2.157 2.215l1.02 1.872-1.774-.96c-.975-.53-2.64-1.224-3.7-1.545-2.228-.674-2.225-.621.118 2.093 2.01 2.328 4.01 3.505 6.153 3.62 1.44.077 1.816.257 2.975 1.415l1.326 1.327-1.102-.316c-.606-.175-2.432-.408-4.057-.52L9.51 53.53l1.788 1.326c2.65 1.966 4.894 2.732 7.475 2.552 1.887-.132 2.32-.04 4.056.864l1.943 1.011-1.456.083c-1.658.093-7.143 1.4-7.143 1.7 0 .353 3.713.98 5.798.98 1.946 0 3.864-.55 4.915-1.408.404-.33.904-.3 2.612.153 1.162.309 1.88.57 1.596.583-.652.028-7.121 3.177-7.121 3.466 0 .332 4.507-.165 6.432-.71 1.01-.284 2.233-.949 2.965-1.61.684-.618 1.564-1.124 1.956-1.124.39 0 1.383.513 2.203 1.14 1.832 1.398 3.774 2 7.302 2.263l2.705.201-2.809-1.453c-1.544-.8-3.415-1.636-4.157-1.858l-1.35-.404 2.196-.553 2.197-.553 1.201.795c1.6 1.059 4.256 1.393 7.29.916 1.327-.208 2.5-.467 2.609-.575.422-.422-7.416-2.386-8.024-2.01-.16.098-.29.105-.29.013 0-.091.894-.69 1.988-1.331 1.842-1.08 2.073-1.138 3.135-.788 1.904.629 4.797.185 7.714-1.182l2.6-1.22-1.3-.3c-1.41-.325-6.099-.168-7.15.24-.379.147.006-.429.92-1.377 1.464-1.518 1.702-1.64 3.494-1.803 2.359-.214 4.05-1.162 6.462-3.624 1.379-1.406 1.633-1.81 1.138-1.804-1.305.016-3.615.708-5.415 1.623l-1.855.943 1.04-1.912c.744-1.366 1.273-1.96 1.853-2.08.447-.094 1.483-.598 2.302-1.122 1.227-.784 1.757-1.47 3.007-3.89.834-1.614 1.516-3.028 1.516-3.14 0-.303-3.89 2.351-5.161 3.52-1.09 1.003-1.097 1.005-.91.2.105-.447.284-1.398.4-2.113.166-1.031.417-1.4 1.214-1.787 2.036-.987 3.14-3.16 3.963-7.8l.202-1.138-1.891 1.96c-1.04 1.078-2.127 2.446-2.414 3.04l-.523 1.078-.141-2.218c-.134-2.106-.096-2.256.763-2.978.497-.419 1.054-1.3 1.237-1.959.397-1.428.45-6.452.07-6.687-.401-.248-2.656 4.131-2.678 5.203-.015.75-.163.547-.742-1.014l-.723-1.95.641-1.106c.414-.715.625-1.634.595-2.6-.05-1.68-1.057-5.23-1.51-5.329-.488-.107-1.115 2.087-1.143 3.997l-.027 1.788-.945-1.425c-.885-1.335-.934-1.574-.766-3.789.173-2.289.139-2.435-1.074-4.588l-1.252-2.223-.275 1.787c-.152.983-.208 2.332-.125 2.996l.15 1.208-1.264-1.016c-1-.803-1.187-1.11-.894-1.462.706-.851-.233-2.829-2.195-4.622-.995-.91-1.955-1.654-2.134-1.654-.497 0 .008 1.925.922 3.514l.805 1.4-1.338-.683c-.797-.406-1.473-1.038-1.672-1.563-.565-1.492-1.627-2.328-3.815-3.004-1.154-.356-2.156-.591-2.225-.522-.296.296 3.296 3.806 4.079 3.987.87.2 3.621 1.656 3.621 1.914 0 .078-.409.06-.909-.04s-1.757.039-2.794.31c-3.506.916-2.995 1.225 2.305 1.396 3.869.124 4.216.188 4.943.915l.783.78-1.27-.294c-1.498-.347-3.834-.4-4.14-.095-.356.357 4.663 2.467 6.26 2.633 1.44.149 2.114.625 2.959 2.092.267.463.044.43-1.39-.208-2.056-.914-3.605-1.307-3.447-.874.22.605 4.682 4.051 6.013 4.644.883.393 1.461.91 1.673 1.494.177.49.439 1.184.58 1.542.197.495-.03.4-.95-.404-1.03-.9-3.45-2.359-3.908-2.359-.442 0 3.35 5.098 4.657 6.26 1.488 1.324 1.555 1.46 1.723 3.49.153 1.854.13 1.976-.183.997-.45-1.4-4.271-5.49-3.968-4.247.582 2.389 2.01 5.767 2.972 7.026 1.12 1.468 1.342 2.782.79 4.675-.23.78-.248.768-.488-.325-.138-.626-.784-2.088-1.437-3.25l-1.186-2.113-.107 1.625c-.174 2.666.27 5.578 1.101 7.22l.781 1.543-.942 1.956-.943 1.956-.026-2.134c-.015-1.175-.267-2.93-.561-3.9l-.534-1.766-.796 3.575c-.682 3.067-.746 3.824-.449 5.324.306 1.545.274 1.852-.28 2.63-1.329 1.865-1.552 1.8-1.225-.36.165-1.093.205-2.497.088-3.121l-.213-1.135-1.505 2.556c-1.255 2.13-1.528 2.893-1.64 4.575-.109 1.616-.274 2.107-.83 2.465l-1.542.995-.848.548.757-1.55c.415-.854.89-2.172 1.056-2.93l.3-1.378-.859.618c-1.872 1.35-4.413 4.532-4.774 5.981-.223.89-.695 1.204-2.455 1.629-.835.201-.831.19.252-.96 1.106-1.172 2.216-2.997 1.972-3.241-.072-.073-1.07.246-2.218.708-2.244.904-4.111 2.438-4.409 3.623-.163.65-.387.736-1.937.736-1.299 0-1.752-.12-1.752-.463 0-.984-1.84-2.597-4.178-3.662-1.324-.604-2.473-1.033-2.552-.954-.256.257.836 2.061 1.986 3.28l1.122 1.19-1.033-.224c-1.987-.432-2.495-.747-2.495-1.548 0-.424-.422-1.342-.938-2.04-1.19-1.608-4.587-4.929-4.587-4.483 0 .694 1.049 3.896 1.516 4.626.694 1.085.442 1.112-1.116.116-1.313-.839-1.37-.944-1.364-2.5.005-1.308-.296-2.215-1.537-4.636-1.367-2.664-1.577-2.926-1.825-2.275-.27.705-.077 4.166.297 5.362.1.316-.409-.058-1.13-.83-1.134-1.218-1.267-1.513-1-2.216.17-.446.309-1.55.309-2.453 0-1.85-.999-7.09-1.351-7.09-.442 0-1.328 4.901-1.121 6.198.112.702.122 1.277.02 1.277-.1 0-.616-.927-1.147-2.06l-.964-2.06.819-1.466c.675-1.208.856-2.08 1.034-4.979.17-2.781.13-3.461-.194-3.261-.46.285-2.6 4.602-2.66 5.367-.06.774-.53-1.324-.573-2.558-.029-.824.263-1.472 1.153-2.558 1.095-1.336 3.784-6.886 3.488-7.198-.317-.334-3.305 2.622-4.106 4.062l-.889 1.598.18-1.625c.292-2.665.39-2.906 1.441-3.527.86-.507 5.52-6.33 5.52-6.896 0-.41-3.474 1.838-4.658 3.012l-1.245 1.236.703-1.785c.684-1.74 1.1-2.262 1.81-2.273.782-.01 6.899-4.729 6.565-5.063-.236-.236-3.095.722-4.332 1.452-.636.375-1.23.681-1.32.681-.09 0 .309-.658.886-1.462.937-1.305 1.188-1.463 2.32-1.463 1.505 0 6.838-2.187 6.534-2.68-.212-.342-3.63-.153-4.83.268-.538.189-.5.075.219-.675.817-.852 1.015-.9 3.575-.867 1.49.02 3.588-.082 4.66-.224 1.936-.257 1.943-.262.975-.664-1.529-.634-3.963-1.01-5.12-.79l-1.055.2.882-.71c.484-.39 1.611-.927 2.503-1.192.892-.265 2.066-.855 2.609-1.312 1.028-.865 2.45-2.685 2.248-2.877-.064-.06-.921.141-1.904.449z" fill="url(#paint2_linear_1_639)"/></mask><g mask="url(#b)"><path fill="url(#paint3_linear_1_639)" d="M-7.4-4.475h42.576v78.001H-7.4z"/></g><defs><linearGradient id="paint0_linear_1_639" x1="23.651" y1="67.023" x2="44.487" y2="3.051" gradientUnits="userSpaceOnUse"><stop stop-color="#FFA444"/><stop offset="1" stop-color="#F94D32"/></linearGradient><linearGradient id="paint1_linear_1_639" x1="6.158" y1="76.072" x2="46.143" y2="12.006" gradientUnits="userSpaceOnUse"><stop stop-color="#FFA444"/><stop offset="1" stop-color="#F94D32"/></linearGradient><linearGradient id="paint2_linear_1_639" x1="23.651" y1="67.023" x2="44.487" y2="3.051" gradientUnits="userSpaceOnUse"><stop stop-color="#FFA444"/><stop offset="1" stop-color="#F94D32"/></linearGradient><linearGradient id="paint3_linear_1_639" x1="6.158" y1="76.072" x2="46.143" y2="12.006" gradientUnits="userSpaceOnUse"><stop stop-color="#FFA444"/><stop offset="1" stop-color="#F94D32"/></linearGradient><filter id="filter0_f_1_639" x="0" y="0" width="38.175" height="68" filterUnits="userSpaceOnUse" color-interpolation-filters="sRGB"><feFlood flood-opacity="0" result="BackgroundImageFix"/><feBlend in="SourceGraphic" in2="BackgroundImageFix" result="shape"/><feGaussianBlur stdDeviation="1.5" result="effect1_foregroundBlur_1_639"/></filter></defs></svg>