<svg width="66" height="66" fill="none" xmlns="http://www.w3.org/2000/svg"><path d="M33 62.563c16.307 0 29.563-13.256 29.563-29.563C62.563 16.692 49.306 3.437 33 3.437 16.692 3.438 3.437 16.693 3.437 33S16.692 62.563 33 62.563zm0-55c14.025 0 25.438 11.412 25.438 25.437S47.025 58.438 33 58.438C18.975 58.438 7.562 47.025 7.562 33 7.563 18.975 18.976 7.562 33 7.562z" fill="url(#paint0_linear_1_655)"/><path d="M36.465 44.77a2.04 2.04 0 001.457-.605 2.075 2.075 0 000-2.915L29.672 33l8.25-8.25a2.075 2.075 0 000-2.915 2.075 2.075 0 00-2.914 0L25.3 31.543a2.075 2.075 0 000 2.915l9.707 9.707a2.04 2.04 0 001.458.605z" fill="url(#paint1_linear_1_655)"/><defs><linearGradient id="paint0_linear_1_655" x1="43.734" y1="64.492" x2="23.137" y2="4.031" gradientUnits="userSpaceOnUse"><stop stop-color="#FFA444"/><stop offset="1" stop-color="#F94D32"/></linearGradient><linearGradient id="paint1_linear_1_655" x1="34.12" y1="45.538" x2="22.462" y2="25.444" gradientUnits="userSpaceOnUse"><stop stop-color="#FFA444"/><stop offset="1" stop-color="#F94D32"/></linearGradient></defs></svg>