<svg width="66" height="66" fill="none" xmlns="http://www.w3.org/2000/svg"><path d="M33 62.563C16.692 62.563 3.437 49.306 3.437 33 3.438 16.692 16.693 3.437 33 3.437S62.563 16.692 62.563 33c0 16.307-13.256 29.563-29.563 29.563zm0-55C18.975 7.563 7.562 18.974 7.562 33S18.976 58.438 33 58.438c14.025 0 25.438-11.413 25.438-25.438C58.438 18.975 47.025 7.562 33 7.562z" fill="url(#paint0_linear_1_659)"/><path d="M29.535 44.77a2.04 2.04 0 01-1.457-.605 2.075 2.075 0 010-2.915l8.25-8.25-8.25-8.25a2.075 2.075 0 010-2.915 2.075 2.075 0 012.915 0l9.707 9.708a2.075 2.075 0 010 2.915l-9.708 9.707a2.04 2.04 0 01-1.457.605z" fill="url(#paint1_linear_1_659)"/><defs><linearGradient id="paint0_linear_1_659" x1="22.266" y1="64.492" x2="42.863" y2="4.031" gradientUnits="userSpaceOnUse"><stop stop-color="#FFA444"/><stop offset="1" stop-color="#F94D32"/></linearGradient><linearGradient id="paint1_linear_1_659" x1="31.88" y1="45.538" x2="43.538" y2="25.444" gradientUnits="userSpaceOnUse"><stop stop-color="#FFA444"/><stop offset="1" stop-color="#F94D32"/></linearGradient></defs></svg>