<svg width="32" height="32" fill="none" xmlns="http://www.w3.org/2000/svg"><path d="M15.746 31.085c8.696 0 15.745-6.959 15.745-15.543C31.491 6.96 24.441 0 15.746 0 7.05 0 0 6.959 0 15.542c0 8.584 7.05 15.543 15.746 15.543z" fill="url(#paint0_linear_1_523)"/><g filter="url(#filter0_d_1_523)"><path d="M22.69 18.494c-.09-.137-.691-.426-.691-.426-.24-.116-2.002-.967-2.332-1.088-.282-.1-.607-.215-.894.21-.218.32-.857 1.056-1.07 1.288-.144.163-.282.215-.607.057-.053-.026-1.623-.688-2.704-1.634-.958-.835-1.623-1.87-1.868-2.275-.15-.247-.054-.362.133-.546a18.1 18.1 0 00.65-.757c.079-.12.217-.404.217-.404.144-.279.054-.52-.026-.684-.059-.11-.958-2.259-1.049-2.459-.255-.604-.532-.635-.793-.625-.128.01-1.325.016-1.703.426l-.07.068c-.372.389-1.15 1.203-1.15 2.774 0 .363.06.741.182 1.162.223.756.654 1.587 1.23 2.343.01.016.888 1.214 1.325 1.713 1.384 1.571 2.943 2.732 4.519 3.342 2.012.777 2.874.956 3.364.956.213 0 .665-.105.761-.115.618-.053 2.076-.804 2.385-1.65.298-.799.303-1.498.192-1.677z" fill="#FFE6D8"/><path d="M13.524 12.919c.144-.279.054-.52-.026-.684m.026.684l9.167 5.575c.111.178.106.877-.192 1.676-.309.846-1.767 1.597-2.385 1.65a3.06 3.06 0 00-.17.03c-.18.034-.443.085-.59.085-.49 0-1.353-.179-3.365-.956m-2.465-8.06l-.449-.22m.45.22l8.728 5.857m-8.729-5.857s-.138.283-.218.404m.218-.404l-.218.404m.192-1.088c-.034-.064-.354-.82-.633-1.48-.2-.472-.378-.895-.416-.979-.255-.604-.532-.635-.793-.625m1.842 3.085l-.442.234a.579.579 0 01-.007-.014m.449-.22l-.45.22M11.657 9.15a2.33 2.33 0 01-.071.004c-.294.012-1.293.054-1.632.422l-.07.068m1.773-.494l.04.499h-.012m-.028-.499l.02.5h.008m-1.8-.006c-.373.389-1.15 1.203-1.15 2.774 0 .363.058.741.18 1.162m.97-3.936l.36.346h0a.18.18 0 00-.004.005m-.357-.35l.352.355.005-.005M8.916 13.58c.223.756.654 1.587 1.23 2.343.01.016.888 1.214 1.325 1.713M8.916 13.58l.48-.142s0 0 0 0m-.48.142l.48-.14v-.001m2.075 4.197c1.384 1.571 2.943 2.732 4.519 3.342m-4.52-3.342l.376-.33s0 0 0 0m-.375.33l.376-.33s0 0 0 0m4.143 3.672l.18-.467s0 0 0 0m-.18.467l.18-.466m6.084-1.737a3.05 3.05 0 00-.184-.109 6.273 6.273 0 00-.2-.106l-.065-.032-.017-.008-.004-.002h0-.002l-.016-.009c-.144-.07-.623-.3-1.112-.532a26.055 26.055 0 00-1.155-.527 1.804 1.804 0 00-.168-.054.243.243 0 00-.07-.01s.003-.001 0 0a.292.292 0 00-.073.083v.002c-.24.352-.896 1.105-1.113 1.34a.88.88 0 01-.533.31c-.243.035-.47-.043-.663-.137l-.003-.001c.014.007-.444-.191-.982-.48-.549-.295-1.249-.717-1.83-1.226-1.017-.887-1.714-1.974-1.967-2.393h0c-.119-.196-.199-.445-.104-.719.07-.203.223-.353.302-.431l.011-.011c.037-.036.173-.192.324-.368a28.116 28.116 0 00.259-.31l.008-.01a3.211 3.211 0 00.158-.294l.016-.032.004-.008V12.7h.001m9.178 6.076c.006.066.007.16-.003.282-.02.25-.086.58-.22.937v.003c-.096.26-.416.585-.872.87-.451.282-.891.437-1.086.453h0l-.012.002a2.408 2.408 0 00-.166.027h-.003l-.043.01-.16.03c-.159.028-.28.045-.335.045-.386 0-1.17-.144-3.184-.922m6.084-1.737L13.075 12.7m0 0h0l.005-.01h0a.145.145 0 00.019-.092.47.47 0 00-.05-.141h0m0 0a13.62 13.62 0 01-.187-.427l-.337-.795-.121-.287c-.2-.473-.376-.887-.41-.964l-.006-.012h0c-.106-.253-.185-.306-.195-.312 0 0 0 0 0 0-.004-.002-.017-.012-.109-.008m0 0a4.341 4.341 0 01-.108.005c-.14.006-.35.015-.604.053-.165.024-.32.058-.447.102a.563.563 0 00-.205.105l-.008.008-.008.009-.064.063m0 0c-.348.362-1.006 1.056-1.006 2.423 0 .307.049.638.16 1.02m0 0c.204.69.605 1.467 1.148 2.183l.009.01.008.012.017.024c.057.077.24.327.47.63.276.364.595.775.8 1.01m0 0c1.344 1.525 2.84 2.63 4.323 3.204m-2.863-7.189c-.037.053-.537.646-.65.757-.186.184-.281.3-.132.546.245.405.91 1.44 1.868 2.275 1.005.88 2.434 1.514 2.671 1.62l.033.014-3.79-5.212zm5.467 3.867c.287-.425.611-.31.893-.21h.001c.323.119 2.02.937 2.315 1.08l-3.21-.87zm0 0c-.218.32-.857 1.056-1.07 1.288l1.07-1.288zm3.542 1.63l.003.003-.003-.003z" stroke="url(#paint1_linear_1_523)"/></g><defs><linearGradient id="paint0_linear_1_523" x1="10.029" y1="32.099" x2="20.746" y2=".227" gradientUnits="userSpaceOnUse"><stop stop-color="#FFA444"/><stop offset="1" stop-color="#F94D32"/></linearGradient><linearGradient id="paint1_linear_1_523" x1="10.133" y1="17.595" x2="15.745" y2="17.413" gradientUnits="userSpaceOnUse"><stop stop-color="#fff"/><stop offset="1" stop-color="#fff" stop-opacity="0"/></linearGradient><filter id="filter0_d_1_523" x="1.734" y="5.15" width="26.024" height="24.785" filterUnits="userSpaceOnUse" color-interpolation-filters="sRGB"><feFlood flood-opacity="0" result="BackgroundImageFix"/><feColorMatrix in="SourceAlpha" values="0 0 0 0 0 0 0 0 0 0 0 0 0 0 0 0 0 0 127 0" result="hardAlpha"/><feOffset dx="-1" dy="2"/><feGaussianBlur stdDeviation="3"/><feComposite in2="hardAlpha" operator="out"/><feColorMatrix values="0 0 0 0 0.679167 0 0 0 0 0.192665 0 0 0 0 0.116024 0 0 0 0.61 0"/><feBlend in2="BackgroundImageFix" result="effect1_dropShadow_1_523"/><feBlend in="SourceGraphic" in2="effect1_dropShadow_1_523" result="shape"/></filter></defs></svg>