<svg width="32" height="32" fill="none" xmlns="http://www.w3.org/2000/svg"><path d="M15.745 31.085c8.696 0 15.745-6.959 15.745-15.543C31.49 6.96 24.44 0 15.745 0 7.049 0 0 6.959 0 15.542c0 8.584 7.05 15.543 15.745 15.543z" fill="url(#paint0_linear_1_859)"/><g filter="url(#filter0_bd_1_859)" clip-path="url(#clip0_1_859)"><path d="M20.863 10.136L8.46 15.032c-.499.228-.668.685-.12.933L11.52 17l7.694-4.867c.42-.306.85-.224.48.112l-6.608 6.124-.207 2.592c.192.4.544.402.769.203l1.828-1.77 3.13 2.4c.728.44 1.124.155 1.28-.652l2.054-9.954c.213-.995-.15-1.433-1.078-1.052z" fill="#E0EBFF"/><path d="M21.139 10.834h0l.01-.004.096-.036a2.01 2.01 0 01-.038.236h0v.006l-2.054 9.954h0l-.003.01a1.55 1.55 0 01-.054.208 1.202 1.202 0 01-.069-.037l-3.095-2.372-.513-.394-.465.45-1.251 1.212.108-1.346 6.39-5.923c.075-.068.152-.15.217-.246a.946.946 0 00.162-.432.825.825 0 00-.522-.859l1.08-.426zm-2.092 10.485s0 0 0 0h0zm.71-8.633l-.008.002a.03.03 0 01.008-.002zm-10.431 2.81l8.426-3.325-6.334 4.007-2.092-.681z" stroke="url(#paint1_linear_1_859)" stroke-width="1.5"/></g><defs><linearGradient id="paint0_linear_1_859" x1="20.963" y1="-.597" x2="10.007" y2="34.158" gradientUnits="userSpaceOnUse"><stop stop-color="#243FE1"/><stop offset=".154" stop-color="#2F53E5"/><stop offset=".469" stop-color="#4C87ED"/><stop offset=".914" stop-color="#7BDAFB"/><stop offset="1" stop-color="#84EAFE"/></linearGradient><linearGradient id="paint1_linear_1_859" x1="15.35" y1="11.367" x2="18.474" y2="17.857" gradientUnits="userSpaceOnUse"><stop stop-color="#fff"/><stop offset="1" stop-color="#fff" stop-opacity="0"/></linearGradient><clipPath id="clip0_1_859"><path fill="#fff" transform="translate(5.838 6.94)" d="M0 0h18.313v18.104H0z"/></clipPath><filter id="filter0_bd_1_859" x="3" y="6" width="23" height="21" filterUnits="userSpaceOnUse" color-interpolation-filters="sRGB"><feFlood flood-opacity="0" result="BackgroundImageFix"/><feGaussianBlur in="BackgroundImage" stdDeviation="2"/><feComposite in2="SourceAlpha" operator="in" result="effect1_backgroundBlur_1_859"/><feColorMatrix in="SourceAlpha" values="0 0 0 0 0 0 0 0 0 0 0 0 0 0 0 0 0 0 127 0" result="hardAlpha"/><feOffset dx="-2" dy="2"/><feGaussianBlur stdDeviation="1.5"/><feComposite in2="hardAlpha" operator="out"/><feColorMatrix values="0 0 0 0 0 0 0 0 0 0 0 0 0 0 0 0 0 0 0.19 0"/><feBlend in2="effect1_backgroundBlur_1_859" result="effect2_dropShadow_1_859"/><feBlend in="SourceGraphic" in2="effect2_dropShadow_1_859" result="shape"/></filter></defs></svg>