<svg width="94" height="94" fill="none" xmlns="http://www.w3.org/2000/svg"><g clip-path="url(#clip0_1_299)"><g filter="url(#filter0_d_1_299)"><path d="M25.102 61.188a1.32 1.32 0 00-1.389-.68c-2.737.462-10.604.703-11.21-11.545-.741-14.85 17.262-40.211 43.698-35.169 21.23 4.052 5.376 24.25 18.383 29.349 7.617 2.982 14.498 18.276-2.408 31.561-9.15 7.183-32.613 13.531-47.074-13.516z" fill="url(#paint0_linear_1_299)"/></g><path d="M85.6 30.13a1.389 1.389 0 110-2.777 1.389 1.389 0 010 2.778zm0-1.851a.463.463 0 100 .925.463.463 0 000-.925zM14.744 16.91a1.389 1.389 0 110-2.776 1.389 1.389 0 010 2.777zm0-1.852a.463.463 0 10.463.463.463.463 0 00-.463-.458v-.005zM37.97 94a1.39 1.39 0 110-2.779 1.39 1.39 0 010 2.779zm0-1.852a.463.463 0 100 .926.463.463 0 000-.926zM1.426 51.177a.463.463 0 00-.463-.463h-.5a.463.463 0 100 .926h.5a.463.463 0 00.463-.463zm.287-.287a.463.463 0 00.463-.463v-.5a.463.463 0 00-.463-.426.463.463 0 00-.463.425v.5a.463.463 0 00.463.464zm1.246-.176h-.5a.463.463 0 100 .926h.5a.463.463 0 000-.926zm-1.246.75a.463.463 0 00-.463.463v.5a.463.463 0 00.778.304.463.463 0 00.148-.304v-.5a.463.463 0 00-.463-.463zm90.291 28.204a.463.463 0 00-.463-.463h-.5a.463.463 0 000 .926h.5a.463.463 0 00.463-.463zm.283-.287a.463.463 0 00.463-.463v-.5a.463.463 0 00-.463-.426.463.463 0 00-.463.426v.5a.463.463 0 00.463.463zm1.25-.176h-.5a.463.463 0 000 .926h.5a.463.463 0 000-.926zm-1.25.751a.463.463 0 00-.463.463v.5a.463.463 0 00.463.426.463.463 0 00.463-.426v-.5a.463.463 0 00-.463-.463zM51.672 2.14h.5a.463.463 0 000-.927h-.5a.463.463 0 100 .926zm1.25-.75a.463.463 0 00.464-.464v-.5a.463.463 0 00-.927 0v.5a.463.463 0 00.463.463zm.329.286a.463.463 0 00.426.463h.5a.463.463 0 000-.926h-.5a.463.463 0 00-.426.463zm-.329.287a.463.463 0 00-.463.463v.5a.463.463 0 00.926 0v-.5a.463.463 0 00-.462-.463z" fill="#B2A175"/><path d="M31.51 79.904c9.732 0 17.62-7.888 17.62-17.619 0-9.73-7.888-17.619-17.62-17.619-9.73 0-17.618 7.888-17.618 17.62 0 9.73 7.888 17.618 17.619 17.618z" fill="url(#paint1_linear_1_299)"/><path d="M32.65 74.487c8.163 0 14.78-6.618 14.78-14.78 0-8.164-6.617-14.782-14.78-14.782s-14.78 6.618-14.78 14.781 6.617 14.78 14.78 14.78z" fill="#fff"/><path d="M55.738 40.99c7.62 0 13.799-6.179 13.799-13.8 0-7.62-6.178-13.799-13.8-13.799-7.62 0-13.798 6.178-13.798 13.8 0 7.62 6.178 13.798 13.799 13.798z" fill="url(#paint2_linear_1_299)"/><path d="M56.632 36.989c6.355 0 11.506-5.152 11.506-11.507 0-6.355-5.151-11.507-11.507-11.507-6.355 0-11.506 5.152-11.506 11.507 0 6.355 5.151 11.507 11.507 11.507z" fill="#fff"/><path d="M72.25 67.675c5.534 0 10.02-4.486 10.02-10.02s-4.486-10.02-10.02-10.02-10.02 4.486-10.02 10.02 4.486 10.02 10.02 10.02z" fill="url(#paint3_linear_1_299)"/><path d="M71.408 64.36a8.307 8.307 0 100-16.615 8.307 8.307 0 000 16.615zm-41.842 3.246s-6.02.834-8.65 5.853a.246.246 0 00.046.292c.704.666 4.251 3.704 10.544 3.736 6.293.033 9.798-3.06 10.488-3.736a.246.246 0 00.042-.287c-2.649-5.001-8.65-5.858-8.65-5.858h-3.82z" fill="#fff"/><path d="M71.408 62.406a11.113 11.113 0 00-3.436 1.49.464.464 0 000 .746 7.53 7.53 0 004.515 1.39 7.807 7.807 0 004.565-1.39.463.463 0 000-.75 10.964 10.964 0 00-3.426-1.486h-2.218zM54.177 33.951a8.08 8.08 0 00-4.82 3.205.236.236 0 00.065.337c.731.464 3.343 1.945 6.376 1.853a16.976 16.976 0 006.52-1.741.231.231 0 00.083-.343 8.798 8.798 0 00-4.982-3.31h-3.242z" fill="#fff"/><path d="M25.87 58.558s-2.777-4.686.806-7.41c0 0 4.168-4.607 9.35-.198 0 0 4.13 1.782.268 7.608 0 0-2.44-1.7-2.246-3.279 0 0-1.713 1.75-5.366 1.413l-.403-.709-2.408 2.575z" fill="url(#paint4_linear_1_299)"/><path d="M31.488 68.115a14.906 14.906 0 00-6.988 7.923s10.243 4.63 17.545-2.556c0 0-2.95-5.066-8.196-5.858l-2.361.491z" fill="url(#paint5_linear_1_299)"/><path d="M55.752 34.446s3.06 1.77 3.704 4.27c0 0-5.973 2.023-10.15-1.39 0 0 1.315-2.222 4.867-3.357l1.579.477z" fill="url(#paint6_linear_1_299)"/><path d="M59.447 27.982v-3.297l-1.88-1.852s-1.172 1.852-5.506 1.352l.042 4.367s-3.945-6.006-.885-9.104c0 0 2.825-3.991 7.673.097 0 0 2.779-1.389 2.876 2.908.097 4.297-2.32 5.53-2.32 5.53z" fill="url(#paint7_linear_1_299)"/><path d="M72.838 62.804S70.523 64.165 70 65.411c0 0 4.598 1.769 7.233-1.306l-3.052-1.542-1.343.241z" fill="url(#paint8_linear_1_299)"/><path d="M71.408 61.285l-2.71-.347s-3.24-9.238 1.621-8.442c0 0 3.33-3.625 6.233.505 0 0 1.885 3.07-.056 7.678l-2.778.727v-1.357s2.056-.926 1.468-5.13c0 0-2.727.175-4.228-.904 0 0-.592 1.514-1.079 1.519l.107 2.778s.88 1.996 1.713 1.996l-.291.977z" fill="url(#paint9_linear_1_299)"/><path d="M31.668 41.434a20.047 20.047 0 00-2.64.171.463.463 0 00-.402.464.463.463 0 00.463.462h.06a19.55 19.55 0 0120.342 27.39.464.464 0 00.094.517.463.463 0 00.758-.16 20.482 20.482 0 00-18.68-28.849l.005.005zm9.808-14.244a14.262 14.262 0 1014.262-14.262A14.275 14.275 0 0041.476 27.19zm27.598 0a13.336 13.336 0 11-13.336-13.335A13.35 13.35 0 0169.074 27.19z" fill="#B2A175"/><path d="M39.786 31.895a.463.463 0 00.435.338.463.463 0 00.421-.653A15.66 15.66 0 0160.99 12.502c.05.02.103.031.157.033a.463.463 0 00.153-.899 16.587 16.587 0 00-22.227 15.596c0 1.588.226 3.167.672 4.69l.042-.027zm32.451 36.243a10.484 10.484 0 10-10.484-10.483 10.493 10.493 0 0010.484 10.483zm0-20.04a9.557 9.557 0 11-9.558 9.557 9.567 9.567 0 019.558-9.558z" fill="#B2A175"/><path d="M76.747 45.843h-.023a.462.462 0 00-.163-.033.463.463 0 00-.166.894 11.735 11.735 0 11-13.151 18.522.464.464 0 00-.347-.167.463.463 0 00-.463.463c.002.11.043.215.115.297a12.659 12.659 0 1014.198-19.977zM71 45.981a.464.464 0 00-.046-.926h-.046A12.613 12.613 0 0059.543 57.65c.002.533.036 1.065.102 1.593v.028a.463.463 0 00.926 0 .245.245 0 000-.056A11.752 11.752 0 0171 45.981zM34.303 67.333v-2.45c1.496-1.01 2.672-2.7 2.672-4.63v-1.607c1.255-2.672 1.565-4.825.926-6.39a3.242 3.242 0 00-1.611-1.718c-1.853-1.528-3.76-2.21-5.622-2.015a6.84 6.84 0 00-4.274 2.26c-3.06 1.695-1.95 5.95-.926 7.983l.292.579v.926c0 1.885 1.324 3.589 2.843 4.63h-.051v2.487c-1.852.463-5.927 1.908-8.034 5.904a.704.704 0 00.134.843c.648.611 4.353 3.797 10.836 3.834h.11c6.437 0 10.04-3.218 10.702-3.866a.717.717 0 00.13-.839c-2.144-4.075-6.312-5.496-8.127-5.931zm-7.409-15.777l.084-.046.06-.074a5.946 5.946 0 013.704-1.982c1.62-.171 3.302.463 4.987 1.852l.07.056.074.028a2.203 2.203 0 011.171 1.26c.357.865.5 2.458-.713 5.213a5.001 5.001 0 01-1.74-2.315.732.732 0 00-.431-.463.745.745 0 00-.246-.046.704.704 0 00-.357.102l-.245.157c-.643.421-1.7 1.12-4.13 1.185l.037-.32a.695.695 0 00-.399-.726.71.71 0 00-.814.153l-1.982 2.125c-.556-1.403-1.621-4.848.87-6.159zm-.217 8.706v-1.885l1.537-1.648a.704.704 0 00.18.463.671.671 0 00.538.24c2.852-.027 4.167-.865 4.857-1.328a6.219 6.219 0 002.26 2.704v1.454c0 2.523-2.58 4.686-4.686 4.686-1.584 0-4.686-2.12-4.686-4.686zm2.778 5.093a4.518 4.518 0 001.894.5 4.879 4.879 0 002.014-.463V67.3a5.793 5.793 0 01-3.852 0v-.171h-.033l-.023-1.774zm2.149 11.67h-.107c-5.82-.033-9.224-2.705-10.108-3.497 2.102-3.81 6.302-5.047 7.733-5.371a6.518 6.518 0 004.588 0c1.339.287 5.682 1.5 7.826 5.4-.843.796-4.163 3.486-9.919 3.486l-.014-.019zm21.332-59.359a5.367 5.367 0 00-3.338 4.593c-.19 3.33 1.671 5.95 2.07 6.483.149.83.55 1.595 1.148 2.19.27.256.572.477.898.658v1.99a8.696 8.696 0 00-4.732 3.302.708.708 0 00.19 1.005 12.665 12.665 0 006.32 1.936h.306a17.46 17.46 0 006.714-1.806.7.7 0 00.25-1.038 9.326 9.326 0 00-4.88-3.394v-2.033a4.168 4.168 0 001.968-2.806c3.32-3.565 2.148-7.946 1.514-8.881a2.097 2.097 0 00-2.487-.782c-1.847-1.672-4.005-2.195-5.94-1.417zm8.91 19.642a16.361 16.361 0 01-6.076 1.589 11.55 11.55 0 01-5.904-1.649 7.82 7.82 0 014.205-2.778c.51.303 1.092.463 1.685.463a3.538 3.538 0 001.723-.463 8.44 8.44 0 014.367 2.838zm-4.89-3.625a2.422 2.422 0 01-2.316 0v-1.704c.367.103.745.156 1.126.157a4.041 4.041 0 001.19-.185v1.732zm2.042-5.7a3.24 3.24 0 01-5.51 2.278 3.186 3.186 0 01-.927-2.279v-3.537c2.7.463 4.279-.348 5.094-1.042a2.19 2.19 0 001.389 1.458l-.046 3.121zm-.653-8.127a.7.7 0 00.722.143 1.2 1.2 0 011.524.39c.463.69 1.278 3.875-.672 6.778v-2.482a.704.704 0 00-.523-.671c-.644-.171-.829-.657-.991-1.232a.703.703 0 00-.495-.463.691.691 0 00-.667.195c-.463.49-1.899 1.57-4.807.99a.691.691 0 00-.574.112.675.675 0 00-.25.532v2.71a8.946 8.946 0 01-1.079-4.553 4.436 4.436 0 012.778-3.788c1.617-.652 3.413-.18 5.034 1.339z" fill="#B2A175"/><path d="M68.852 61.239l2.093.421v.39c-1.154.31-2.249.807-3.242 1.472a.926.926 0 000 1.495 8.01 8.01 0 004.788 1.487 8.233 8.233 0 004.84-1.487.926.926 0 00.279-1.17.926.926 0 00-.28-.33 10.802 10.802 0 00-3.12-1.435v-.417l2.25-.422a.658.658 0 00.463-.375c.926-2.102 1.166-4.87.86-6.232a5.042 5.042 0 00-3.704-3.834 3.918 3.918 0 00-3.797 1.194 2.218 2.218 0 00-1.574.084 2.608 2.608 0 00-1.297 1.671c-1.13 3.473.644 6.604 1.01 7.196a.63.63 0 00.43.292zm5.885-5.964v2.385a2.404 2.404 0 01-2.19 2.185c-.866 0-2.19-.977-2.19-2.185v-2.154a1.638 1.638 0 00.926-.926c.57.44 1.676.959 3.454.695zm-2.19 5.496c.245-.003.488-.04.722-.11v1.472a1.616 1.616 0 01-1.39 0V60.66c.217.068.441.105.668.111zm-.065 4.807c-1.515.028-3-.428-4.237-1.302a10.104 10.104 0 013.084-1.389c.373.21.794.322 1.222.325.42-.007.83-.114 1.2-.31 1.074.282 2.095.737 3.023 1.347a7.335 7.335 0 01-4.292 1.329zm-4.168-11.54a1.755 1.755 0 01.81-1.12 1.361 1.361 0 011.038 0 .639.639 0 00.727-.185 3 3 0 013-1.038 4.102 4.102 0 012.996 3.13c.237 1.042.098 3.51-.745 5.525l-1.936.366v-.519a3.184 3.184 0 001.468-2.551v-2.728a.63.63 0 00-.227-.463.639.639 0 00-.527-.13c-2.024.403-3.001-.338-3.33-.676a.63.63 0 00-.896-.017.648.648 0 00-.173.281c-.13.463-.255.695-.621.792a.644.644 0 00-.463.611v2.367a3.195 3.195 0 001.514 2.584v.462l-1.787-.36c-.37-.635-1.806-3.413-.857-6.33h.01zm-4.959 15.883a.463.463 0 00-.208.056 20.303 20.303 0 01-9.396 2.26h-.74a.463.463 0 000 .926h.754c3.416.01 6.783-.803 9.817-2.371a.462.462 0 00.22-.586.462.462 0 00-.447-.285zM46.268 75.25a.463.463 0 00-.338.154 19.74 19.74 0 11-24.583-30.28c.148-.087.3-.17.463-.254a.463.463 0 00-.246-.88.415.415 0 00-.208.06 7.15 7.15 0 00-.463.264 20.653 20.653 0 1025.713 31.724.462.462 0 00-.342-.773l.004-.014zm20.185-59.395a15.65 15.65 0 11-22.856 21.3.465.465 0 00-.352-.175.463.463 0 00-.463.463c0 .108.04.213.11.296a16.577 16.577 0 1024.223-22.555.462.462 0 00-.778.333.464.464 0 00.116.338zM36.512 40.119a.463.463 0 00.37-.204 20.42 20.42 0 012.515-2.959.463.463 0 10-.644-.662 21.66 21.66 0 00-2.635 3.098.463.463 0 00-.088.26.463.463 0 00.482.467zm34.335-1.426a.463.463 0 00-.829.273.464.464 0 00.102.278 20.835 20.835 0 012.38 4.005l.2.463a.463.463 0 00.852-.36l-.209-.464a21.469 21.469 0 00-2.496-4.195z" fill="#B2A175"/><path d="M31.367 43.99A18.082 18.082 0 1049.45 62.05a18.105 18.105 0 00-18.083-18.06zm0 35.239a17.156 17.156 0 1117.156-17.18 17.175 17.175 0 01-17.156 17.157v.023z" fill="#B2A175"/></g><defs><linearGradient id="paint0_linear_1_299" x1="-4.402" y1="68.853" x2="45.228" y2="-9.776" gradientUnits="userSpaceOnUse"><stop stop-color="#E7D5A7"/><stop offset="1" stop-color="#EDE3C9"/></linearGradient><linearGradient id="paint1_linear_1_299" x1="5.413" y1="73.627" x2="31.587" y2="33.569" gradientUnits="userSpaceOnUse"><stop stop-color="#DFCB98"/><stop offset="1" stop-color="#E6D6AD"/></linearGradient><linearGradient id="paint2_linear_1_299" x1="35.299" y1="36.073" x2="55.797" y2="4.701" gradientUnits="userSpaceOnUse"><stop stop-color="#DFCB98"/><stop offset="1" stop-color="#E6D6AD"/></linearGradient><linearGradient id="paint3_linear_1_299" x1="57.408" y1="64.105" x2="72.294" y2="41.323" gradientUnits="userSpaceOnUse"><stop stop-color="#DFCB98"/><stop offset="1" stop-color="#E6D6AD"/></linearGradient><linearGradient id="paint4_linear_1_299" x1="21.692" y1="56.862" x2="27.673" y2="44.264" gradientUnits="userSpaceOnUse"><stop stop-color="#DFCB98"/><stop offset="1" stop-color="#E6D6AD"/></linearGradient><linearGradient id="paint5_linear_1_299" x1="20.279" y1="75.746" x2="25.474" y2="61.629" gradientUnits="userSpaceOnUse"><stop stop-color="#DFCB98"/><stop offset="1" stop-color="#E6D6AD"/></linearGradient><linearGradient id="paint6_linear_1_299" x1="46.864" y1="38.36" x2="49.529" y2="30.611" gradientUnits="userSpaceOnUse"><stop stop-color="#DFCB98"/><stop offset="1" stop-color="#E6D6AD"/></linearGradient><linearGradient id="paint7_linear_1_299" x1="47.236" y1="26.619" x2="55.031" y2="13.738" gradientUnits="userSpaceOnUse"><stop stop-color="#DFCB98"/><stop offset="1" stop-color="#E6D6AD"/></linearGradient><linearGradient id="paint8_linear_1_299" x1="68.26" y1="65.32" x2="69.77" y2="60.337" gradientUnits="userSpaceOnUse"><stop stop-color="#DFCB98"/><stop offset="1" stop-color="#E6D6AD"/></linearGradient><linearGradient id="paint9_linear_1_299" x1="65.299" y1="59.556" x2="73.197" y2="48.222" gradientUnits="userSpaceOnUse"><stop stop-color="#DFCB98"/><stop offset="1" stop-color="#E6D6AD"/></linearGradient><clipPath id="clip0_1_299"><path fill="#fff" d="M0 0h94v94H0z"/></clipPath><filter id="filter0_d_1_299" x="8.48" y="13.142" width="78.171" height="75.786" filterUnits="userSpaceOnUse" color-interpolation-filters="sRGB"><feFlood flood-opacity="0" result="BackgroundImageFix"/><feColorMatrix in="SourceAlpha" values="0 0 0 0 0 0 0 0 0 0 0 0 0 0 0 0 0 0 127 0" result="hardAlpha"/><feOffset dy="4"/><feGaussianBlur stdDeviation="2"/><feComposite in2="hardAlpha" operator="out"/><feColorMatrix values="0 0 0 0 0 0 0 0 0 0 0 0 0 0 0 0 0 0 0.25 0"/><feBlend in2="BackgroundImageFix" result="effect1_dropShadow_1_299"/><feBlend in="SourceGraphic" in2="effect1_dropShadow_1_299" result="shape"/></filter></defs></svg>