<svg width="94" height="94" fill="none" xmlns="http://www.w3.org/2000/svg"><g clip-path="url(#clip0_179_24)"><g filter="url(#filter0_d_179_24)"><path d="M25.005 61.188a1.319 1.319 0 00-1.39-.68c-2.736.462-10.598.703-11.21-11.545-.74-14.85 17.263-40.211 43.699-35.169 21.23 4.052 5.38 24.25 18.383 29.349 7.617 2.982 14.498 18.276-2.408 31.561-9.145 7.183-32.608 13.531-47.074-13.516z" fill="url(#paint0_linear_179_24)"/></g><path d="M1.39 71.653a1.39 1.39 0 110-2.779 1.39 1.39 0 010 2.78zm0-1.852a.463.463 0 100 .926.463.463 0 000-.926zM47.926 2.778a1.39 1.39 0 110-2.779 1.39 1.39 0 010 2.78zm0-1.852a.463.463 0 100 .925.463.463 0 000-.925z" fill="#B2A175"/><g filter="url(#filter1_d_179_24)"><path d="M87.082 73.626a1.39 1.39 0 110-2.78 1.39 1.39 0 010 2.78zm0-1.853a.463.463 0 100 .926.463.463 0 000-.926z" fill="#B2A175"/></g><path d="M7.96 25.718a.463.463 0 00-.463-.463h-.5a.463.463 0 000 .926h.5a.463.463 0 00.463-.463zm.282-.288a.463.463 0 00.463-.462v-.5a.463.463 0 00-.778-.304.463.463 0 00-.148.304v.5a.463.463 0 00.463.463zm1.251-.175h-.5a.463.463 0 00-.304.778.463.463 0 00.304.148h.5a.463.463 0 000-.926zM8.242 26a.463.463 0 00-.463.463v.5a.463.463 0 00.778.304.463.463 0 00.148-.303v-.5A.463.463 0 008.242 26zm83.762-7.181a.463.463 0 00-.463-.463h-.5a.463.463 0 000 .926h.5a.463.463 0 00.463-.463zm.283-.297a.463.463 0 00.463-.463v-.49a.463.463 0 00-.778-.304.463.463 0 00-.148.303v.491a.463.463 0 00.463.463zm1.25-.167h-.5a.463.463 0 000 .927h.5a.463.463 0 000-.927zm-1.25.751a.463.463 0 00-.463.463v.5a.463.463 0 00.778.304.463.463 0 00.148-.304v-.5a.463.463 0 00-.463-.463zM36.822 92.324a.463.463 0 00-.463-.463h-.495a.463.463 0 000 .926h.495a.463.463 0 00.463-.463zm.288-.287a.463.463 0 00.462-.464v-.495a.463.463 0 00-.926 0v.495a.463.463 0 00.463.464zm1.25-.177h-.5a.463.463 0 000 .927h.5a.463.463 0 000-.926zm-1.25.75a.463.463 0 00-.464.464v.5a.463.463 0 00.926 0v-.5a.463.463 0 00-.463-.463z" fill="#B2A175"/><path d="M68.564 54.705h-16.1s-.38.292-.644 1.39c-.264 1.097 0 .296 0 .296l-2.727.199-2.042-1.436-5.501-7.038-3.95-7.006a2.857 2.857 0 00-2.163-.87c-1.3.097-2.287 2.287-1.602 5.408.686 3.12 2.098 7.14 2.098 7.14l-.704 1.098-14.322.092s-2.806.361-2.264 3.316c0 0-.098 1.602 2.912 2.398a3.667 3.667 0 00-1.542 3.242c.116 2.19 2.653 2.51 2.653 2.51s-2.222 1.495-1.76 3.366c.464 1.87 2.914 2.43 2.914 2.43s-1.913 1.413-1.69 2.677c.222 1.264.833 2.677 2.903 2.677h16.554l7.409-3.344 2.51-.125.694 1.658 1.01.213 16.452-.231c.308-3.394-.24-6.81-1.593-9.938a17.676 17.676 0 001.301-10.136l-.806.014z" fill="#fff"/><path d="M64.828 54.64s2.421 17.972-10.23 20.157l-2.375-.032-.282-1.62-.111-16.731s.199-1.584 1.014-1.709 11.984-.064 11.984-.064z" fill="url(#paint1_linear_179_24)"/><path d="M65.004 74.978s3.704-4.367 3.06-10.136c0 0-1.593 6.825-11.048 9.955l7.988.18z" fill="url(#paint2_linear_179_24)"/><path d="M49.172 39.874h-.968a4.904 4.904 0 01-4.908-4.904V22.958a4.903 4.903 0 014.908-4.899H72.01a4.909 4.909 0 014.908 4.904V34.97a4.909 4.909 0 01-4.909 4.904h-13.89a.611.611 0 00-.584.435c-.412 1.357-2.05 5.464-6.945 6.02a.61.61 0 01-.635-.857c.56-1.223 1.2-3.445-.32-5.376a.597.597 0 00-.462-.222z" fill="#fff"/><path d="M43.791 24.542s1.973 13.086 15.452 13.243c13.48.158 17.212-7.26 17.212-7.26l.463 3.005s.218 3.616-1.635 5.093a5.524 5.524 0 01-3.704 1.255h-13.92s-1.36 6.594-7.455 6.349l-.342-.848s2.083-3.088-.69-5.487l-2.524-.25a4.858 4.858 0 01-3.352-4.228c-.37-3.463.495-10.872.495-10.872z" fill="url(#paint3_linear_179_24)"/><path d="M60.563 24.463a.176.176 0 00.338 0 3.918 3.918 0 017.663 1.14s.181 5.375-7.575 10.372a.464.464 0 01-.519 0c-7.751-4.997-7.575-10.373-7.575-10.373a3.917 3.917 0 017.668-1.139z" fill="url(#paint4_linear_179_24)"/><path d="M70.102 54.978a.736.736 0 00-.737-.736h-16.53a1.478 1.478 0 00-1.478 1.482v.426c-.685 0-1.93-.023-2.51 0-.462-.088-2.01-1.852-3.2-3.413-.337-.407-.661-.833-.99-1.264-.398-.518-.806-1.056-1.232-1.56-1.486-1.746-2.482-3.765-3.361-5.557-1.316-2.672-2.367-4.783-4.427-4.589-2.913.37-2.464 4.168-2.316 5.446v.199a28.397 28.397 0 002.093 7.274.533.533 0 01-.463.76H21.388a3.437 3.437 0 00-2.403 1.106 3.58 3.58 0 00-.796 2.274 3.163 3.163 0 002.51 3.176c-.12.097-.234.202-.339.315a3.58 3.58 0 00-.8 2.27 3.14 3.14 0 002.167 3.074 3.168 3.168 0 00-.463.421 3.575 3.575 0 00-.797 2.27 3.145 3.145 0 002.394 3.144 3.476 3.476 0 00-.384.347 3.58 3.58 0 00-.82 2.246c0 1.171.574 2.63 3.325 2.926h13.915c1.588 0 3.24-.023 4.741-.74l5.52-2.622.523-.115h1.672v.393a1.474 1.474 0 001.472 1.482h16.578a.736.736 0 00.727-.639 20.19 20.19 0 00-1.5-10.187 27.586 27.586 0 001.472-9.609zM49.584 72.625l-.676.153-5.659 2.7c-1.329.63-2.778.639-4.352.648H25.056c-1.686-.19-2.473-.824-2.473-2.005-.002-.6.199-1.182.57-1.653a2.546 2.546 0 011.732-.783h6.255a.463.463 0 000-.926h-7.297c-1.607-.18-2.44-.995-2.473-2.417a2.63 2.63 0 01.556-1.634 2.515 2.515 0 011.727-.783h7.01a.463.463 0 00.362-.171.463.463 0 00-.047-.653.463.463 0 00-.305-.107h-7.72c-1.61-.18-2.444-1-2.477-2.422a2.667 2.667 0 01.556-1.634 2.529 2.529 0 011.732-.783h7.487a.462.462 0 00.348-.157.463.463 0 00-.348-.76h-8.673c-1.611-.18-2.445-1-2.472-2.421a2.64 2.64 0 01.555-1.635 2.538 2.538 0 011.727-.782h13.559a1.45 1.45 0 001.194-.625 1.477 1.477 0 00.14-1.431 27.416 27.416 0 01-2.015-7.011v-.208c-.227-1.936-.26-4.168 1.5-4.413 1.431-.13 2.316 1.727 3.496 4.08a27.286 27.286 0 003.483 5.732c.412.463.815 1.01 1.204 1.519.388.509.666.875 1 1.278 1.296 1.722 3.023 3.764 3.917 3.764h.032c.57-.032 1.811 0 2.487 0V72.65l-1.801-.024zm3.241 1.89a.542.542 0 01-.546-.556V55.724a.552.552 0 01.55-.556h16.347c0 6.534-1.649 11.526-4.932 14.846-3.977 4.033-9.307 4.491-11.414 4.5h-.005zm16.406 0H58.544a15.61 15.61 0 006.362-3.848 15.932 15.932 0 003.242-4.798 19.86 19.86 0 011.088 8.646h-.005z" fill="#B2A175"/><path d="M72.01 17.596H48.204a5.376 5.376 0 00-5.371 5.362V34.97a5.376 5.376 0 005.37 5.367h.969a.135.135 0 01.106.046c1.39 1.755.76 3.82.269 4.894a1.056 1.056 0 00.102 1.075 1.092 1.092 0 00.88.463h.124c5.191-.598 6.946-5.01 7.33-6.349a.149.149 0 01.14-.106h13.891a5.376 5.376 0 005.372-5.367V22.958a5.376 5.376 0 00-5.376-5.362zm4.445 17.378a4.45 4.45 0 01-4.445 4.441H58.118a1.07 1.07 0 00-1.028.764c-.361 1.2-1.913 5.163-6.548 5.696a.163.163 0 01-.148-.065.143.143 0 010-.144c.584-1.264 1.306-3.704-.375-5.848a1.084 1.084 0 00-.838-.403h-.977a4.445 4.445 0 01-4.445-4.44V22.957a4.445 4.445 0 014.445-4.436H72.01a4.45 4.45 0 014.445 4.44v12.012z" fill="#B2A175"/><path d="M64.647 21.222a4.352 4.352 0 00-3.917 2.394 4.385 4.385 0 00-8.298 1.954c0 .227-.098 5.695 7.788 10.775a.925.925 0 001.019 0c7.872-5.093 7.798-10.548 7.789-10.761a4.385 4.385 0 00-4.381-4.362zM60.72 35.577c-7.409-4.77-7.362-9.92-7.362-9.984a3.455 3.455 0 016.76-1.005.639.639 0 001.223 0 3.455 3.455 0 016.76 1.019c.005.06.047 5.21-7.38 9.979v-.01z" fill="#B2A175"/></g><defs><linearGradient id="paint0_linear_179_24" x1="-4.5" y1="68.853" x2="45.131" y2="-9.776" gradientUnits="userSpaceOnUse"><stop stop-color="#E7D5A7"/><stop offset="1" stop-color="#EDE3C9"/></linearGradient><linearGradient id="paint1_linear_179_24" x1="48.658" y1="71.204" x2="65.017" y2="54.84" gradientUnits="userSpaceOnUse"><stop stop-color="#DFCB98"/><stop offset="1" stop-color="#E6D6AD"/></linearGradient><linearGradient id="paint2_linear_179_24" x1="54.34" y1="73.172" x2="61.567" y2="61.033" gradientUnits="userSpaceOnUse"><stop stop-color="#DFCB98"/><stop offset="1" stop-color="#E6D6AD"/></linearGradient><linearGradient id="paint3_linear_179_24" x1="35.09" y1="42.369" x2="47.658" y2="12.466" gradientUnits="userSpaceOnUse"><stop stop-color="#DFCB98"/><stop offset="1" stop-color="#E6D6AD"/></linearGradient><linearGradient id="paint4_linear_179_24" x1="49.124" y1="33.493" x2="59.409" y2="16.337" gradientUnits="userSpaceOnUse"><stop stop-color="#DFCB98"/><stop offset="1" stop-color="#E6D6AD"/></linearGradient><filter id="filter0_d_179_24" x="8.383" y="13.142" width="78.171" height="75.786" filterUnits="userSpaceOnUse" color-interpolation-filters="sRGB"><feFlood flood-opacity="0" result="BackgroundImageFix"/><feColorMatrix in="SourceAlpha" values="0 0 0 0 0 0 0 0 0 0 0 0 0 0 0 0 0 0 127 0" result="hardAlpha"/><feOffset dy="4"/><feGaussianBlur stdDeviation="2"/><feComposite in2="hardAlpha" operator="out"/><feColorMatrix values="0 0 0 0 0 0 0 0 0 0 0 0 0 0 0 0 0 0 0.25 0"/><feBlend in2="BackgroundImageFix" result="effect1_dropShadow_179_24"/><feBlend in="SourceGraphic" in2="effect1_dropShadow_179_24" result="shape"/></filter><filter id="filter1_d_179_24" x="81.693" y="70.847" width="10.778" height="10.778" filterUnits="userSpaceOnUse" color-interpolation-filters="sRGB"><feFlood flood-opacity="0" result="BackgroundImageFix"/><feColorMatrix in="SourceAlpha" values="0 0 0 0 0 0 0 0 0 0 0 0 0 0 0 0 0 0 127 0" result="hardAlpha"/><feOffset dy="4"/><feGaussianBlur stdDeviation="2"/><feComposite in2="hardAlpha" operator="out"/><feColorMatrix values="0 0 0 0 0 0 0 0 0 0 0 0 0 0 0 0 0 0 0.25 0"/><feBlend in2="BackgroundImageFix" result="effect1_dropShadow_179_24"/><feBlend in="SourceGraphic" in2="effect1_dropShadow_179_24" result="shape"/></filter><clipPath id="clip0_179_24"><path fill="#fff" d="M0 0h94v94H0z"/></clipPath></defs></svg>