<svg width="94" height="94" fill="none" xmlns="http://www.w3.org/2000/svg"><g filter="url(#filter0_d_1_72)"><path d="M24.936 61.188a1.32 1.32 0 00-1.39-.68c-2.732.462-10.599.703-11.21-11.545-.76-14.85 17.262-40.211 43.694-35.169 21.235 4.052 5.38 24.25 18.388 29.349 7.612 2.982 14.493 18.276-2.413 31.561-9.14 7.183-32.608 13.531-47.07-13.516z" fill="url(#paint0_linear_1_72)"/></g><path d="M1.39 54.983a1.389 1.389 0 110-2.777 1.389 1.389 0 010 2.777zm0-1.852a.463.463 0 100 .926.463.463 0 000-.926zM57.275 2.778a1.389 1.389 0 110-2.778 1.389 1.389 0 010 2.778zm0-1.852a.463.463 0 100 .927.463.463 0 000-.927zM92.61 81.33a1.39 1.39 0 11.001-2.778 1.39 1.39 0 010 2.779zm0-1.851a.463.463 0 10.001.926.463.463 0 000-.926zM14.818 13.216a.463.463 0 00-.463-.464h-.463a.463.463 0 100 .926h.463a.463.463 0 00.463-.463zm.301-.288a.463.463 0 00.463-.463v-.5a.463.463 0 10-.926 0v.5a.463.463 0 00.463.463zm1.245-.176h-.495a.463.463 0 000 .926h.495a.463.463 0 100-.926zm-1.245.746a.463.463 0 00-.463.463v.5a.463.463 0 10.926 0v-.5a.463.463 0 00-.463-.463zm69.388 15.887a.463.463 0 00-.463-.463h-.495a.463.463 0 100 .927h.495a.462.462 0 00.463-.464zm.287-.287a.463.463 0 00.463-.463v-.5a.463.463 0 10-.926 0v.5a.463.463 0 00.463.463zm1.251-.176h-.5a.463.463 0 100 .927h.5a.463.463 0 100-.927zm-1.251.751a.463.463 0 00-.463.463v.5a.463.463 0 00.926 0v-.5a.463.463 0 00-.463-.463zM35.827 92.324a.463.463 0 00-.463-.463h-.5a.463.463 0 000 .926h.5a.463.463 0 00.463-.463zm.291-.287a.463.463 0 00.463-.463v-.496a.463.463 0 00-.926 0v.496a.463.463 0 00.463.463zm1.242-.177h-.5a.463.463 0 000 .927h.5a.463.463 0 000-.926zm-1.242.75a.463.463 0 00-.463.464v.5a.463.463 0 00.778.304.463.463 0 00.148-.304v-.5a.463.463 0 00-.463-.463z" fill="#B2A175"/><path d="M25.857 26.348a.236.236 0 00-.315 0 26.042 26.042 0 00-3.177 35.16l-.537-.705a28.408 28.408 0 011.677-36.58.227.227 0 000-.302l-1.477-1.81a.232.232 0 01.19-.38l5.519.153a.228.228 0 01.227.236l-.167 5.51a.23.23 0 01-.272.22.232.232 0 01-.117-.058l-1.551-1.444zm20.638-9.502a27.984 27.984 0 0110.098 54.076 27.981 27.981 0 01-24.837-2.302.236.236 0 01-.074-.329l1.89-2.82a.236.236 0 00-.223-.36l-7.663.925a.236.236 0 00-.204.26l.926 7.663a.232.232 0 00.398.134l2.112-2.185a.232.232 0 01.3 0 30.53 30.53 0 1018.226-55.062h-.949z" fill="#fff"/><path d="M47.282 66c12.222 0 22.13-9.908 22.13-22.13s-9.908-22.13-22.13-22.13c-12.221 0-22.129 9.908-22.129 22.13S35.061 66 47.283 66z" fill="url(#paint1_linear_1_72)"/><path d="M48.5 63.045c11.335 0 20.523-9.188 20.523-20.523C69.023 31.188 59.835 22 48.5 22c-11.334 0-20.522 9.188-20.522 20.522 0 11.335 9.188 20.523 20.522 20.523z" fill="#fff"/><path d="M36.141 75.288c6.404 1.218 28.163 3.58 35.739-18.48 0 0 12.655-25.149-15.994-38.397 0 0 22.648 4.76 22.185 30.34 0 0-1.14 24.254-24.153 28.459 0 0-9.854 2.116-17.91-1.482a.232.232 0 01.133-.44z" fill="url(#paint2_linear_1_72)"/><path d="M17.378 34.609s4.663-8.47 10.22-12.466a.233.233 0 01.336.075c.022.038.032.08.03.124l-.18 5.34a.231.231 0 01-.371.175l-2.121-1.611a.227.227 0 00-.296 0 27.783 27.783 0 00-7.636 24.3s-3.144-6.093.018-15.937z" fill="url(#paint3_linear_1_72)"/><path d="M47.106 42.522l9.016-9.015a.954.954 0 011.338 0 .954.954 0 010 1.338l-8.84 8.84-1.514-1.163z" fill="url(#paint4_linear_1_72)"/><path d="M48.347 45.074l-9.26-3.242a.927.927 0 01-.58-1.204.954.954 0 011.21-.579l9.024 3.182-.394 1.843z" fill="url(#paint5_linear_1_72)"/><path d="M47.282 46.208a2.338 2.338 0 100-4.677 2.338 2.338 0 000 4.677z" fill="url(#paint6_linear_1_72)"/><path d="M47.282 66.462A22.592 22.592 0 1024.695 43.87a22.62 22.62 0 0022.587 22.592zm0-44.254A21.666 21.666 0 1125.621 43.87a21.685 21.685 0 0121.662-21.643v-.019z" fill="#B2A175"/><path d="M47.282 63.508A19.638 19.638 0 1027.644 43.87a19.657 19.657 0 0019.639 19.638zm0-38.35a18.712 18.712 0 11-18.71 18.712 18.735 18.735 0 0118.711-18.712z" fill="#B2A175"/><path d="M69.639 25.625a30.76 30.76 0 00-22.097-9.26h-.982a.463.463 0 000 .926h.056a27.514 27.514 0 0127.473 27.926C73.88 59.813 61.836 71.973 47.23 72.32a27.431 27.431 0 01-14.965-3.992l1.755-2.62a.694.694 0 00-.658-1.075l-7.663.926a.674.674 0 00-.463.26.727.727 0 00-.144.514l.926 7.663a.694.694 0 001.19.398l1.968-2.032a30.65 30.65 0 0018.305 5.996c.43 0 .86 0 1.296-.028a30.987 30.987 0 0020.838-52.69l.023-.015zM48.8 77.395a29.821 29.821 0 01-19.175-5.913.68.68 0 00-.926.074l-1.778 1.852-.847-6.946 6.945-.824-1.602 2.403a.69.69 0 00-.102.537.708.708 0 00.31.463A28.45 28.45 0 0066.87 24.89a29.1 29.1 0 00-3.955-3.352 30.444 30.444 0 016.08 4.737 30.065 30.065 0 01-20.198 51.121h.004zM22.731 61.22A25.695 25.695 0 0125.7 26.83l1.39 1.296a.695.695 0 001.167-.49l.166-5.511a.7.7 0 00-.176-.496.676.676 0 00-.463-.217l-5.556-.153a.694.694 0 00-.64.389.676.676 0 00.084.745l1.347 1.654a28.779 28.779 0 00-1.57 37.044l.533.69a.464.464 0 00.366.194.463.463 0 00.463-.463.463.463 0 00-.102-.273l.023-.018zm1.112-36.678a.704.704 0 00.032-.926l-1.157-1.417 4.783.13-.144 4.774-1.185-1.098a.703.703 0 00-.926 0 26.5 26.5 0 00-8.664 20.764 27.831 27.831 0 017.26-22.227z" fill="#B2A175"/><path d="M34.35 44.333a.463.463 0 100-.926h-4.14a.463.463 0 000 .926h4.14zm4.584-2.083l5.556 1.963a2.778 2.778 0 004.376 1.958l7.099 7.951a.463.463 0 00.342.157.464.464 0 00.343-.768l-7.103-7.988a2.778 2.778 0 00.407-2.51l7.835-7.82a1.411 1.411 0 00-1.996-1.996l-7.946 7.932a2.507 2.507 0 00-.565-.06c-.597 0-1.178.193-1.657.55l-5.756-2.028a1.407 1.407 0 00-.926 2.658h-.01zm17.517-8.414a.461.461 0 01.68 0 .463.463 0 01.144.342.465.465 0 01-.143.338l-7.636 7.622a2.845 2.845 0 00-.718-.653l7.673-7.65zM49.158 43.87a1.852 1.852 0 11-3.705 0 1.852 1.852 0 013.705 0zm-10.21-3.121a.463.463 0 01.615-.296l5.353 1.903a2.808 2.808 0 00-.38.898l-5.297-1.88a.463.463 0 01-.273-.245.463.463 0 01-.019-.38zm-.639-11.651l1.05 1.783a.463.463 0 00.394.236.463.463 0 00.463-.463.464.464 0 00-.07-.231l-1.032-1.783a.464.464 0 10-.792.463l-.014-.005zm-3.95 22.764a.463.463 0 00-.227-.861.463.463 0 00-.227.07l-1.686.972a.464.464 0 00-.236.393.463.463 0 00.463.464.462.462 0 00.232-.07l1.68-.968zm21.902 6.784l-1.033-1.783a.463.463 0 00-.86.227c.002.08.026.159.069.227l1.028 1.783a.464.464 0 00.393.236.463.463 0 00.463-.463.463.463 0 00-.07-.232l.01.005zM47.282 31.4a.463.463 0 00.464-.463v-4.14a.463.463 0 10-.927 0v4.14a.463.463 0 00.463.463zm-15.067 4.306l1.685.973c.069.04.147.063.227.064a.463.463 0 00.463-.463.463.463 0 00-.236-.393l-1.685-.973a.464.464 0 00-.232-.064.463.463 0 00-.227.856h.005zm7.525 20.926a.464.464 0 00-.394.236l-1.033 1.782a.463.463 0 00-.065.232.462.462 0 00.857.227l1.033-1.783a.435.435 0 00.035-.406.463.463 0 00-.434-.288zm8.005.175a.463.463 0 10-.926 0v4.136a.463.463 0 10.926 0v-4.136zm14.605-4.769l-1.685-.972a.463.463 0 10-.468.796l1.686.972a.434.434 0 00.226.07.463.463 0 00.463-.463.463.463 0 00-.222-.403zm-2.13-7.705h4.145a.463.463 0 100-.926H60.23a.463.463 0 000 .926h-.01zm.218-7.59a.464.464 0 00.231-.064l1.686-.973a.464.464 0 00-.227-.856.464.464 0 00-.227.064l-1.704.968a.463.463 0 00-.2.576.463.463 0 00.44.285zm-5.612-5.63a.463.463 0 00.398-.236l1.033-1.783a.421.421 0 00.069-.227.463.463 0 00-.463-.463.464.464 0 00-.394.236l-1.028 1.783a.463.463 0 00-.07.231.463.463 0 00.455.459z" fill="#B2A175"/><defs><linearGradient id="paint0_linear_1_72" x1="-4.569" y1="68.853" x2="45.062" y2="-9.774" gradientUnits="userSpaceOnUse"><stop stop-color="#E7D5A7"/><stop offset="1" stop-color="#EDE3C9"/></linearGradient><linearGradient id="paint1_linear_1_72" x1="14.505" y1="58.115" x2="47.378" y2="7.803" gradientUnits="userSpaceOnUse"><stop stop-color="#DFCB98"/><stop offset="1" stop-color="#E6D6AD"/></linearGradient><linearGradient id="paint2_linear_1_72" x1="25.713" y1="67.243" x2="73.734" y2="15.033" gradientUnits="userSpaceOnUse"><stop stop-color="#DFCB98"/><stop offset="1" stop-color="#E6D6AD"/></linearGradient><linearGradient id="paint3_linear_1_72" x1="13.082" y1="45.479" x2="34.105" y2="31.911" gradientUnits="userSpaceOnUse"><stop stop-color="#DFCB98"/><stop offset="1" stop-color="#E6D6AD"/></linearGradient><linearGradient id="paint4_linear_1_72" x1="44.55" y1="41.823" x2="52.26" y2="29.823" gradientUnits="userSpaceOnUse"><stop stop-color="#DFCB98"/><stop offset="1" stop-color="#E6D6AD"/></linearGradient><linearGradient id="paint5_linear_1_72" x1="35.973" y1="44.169" x2="38.377" y2="36.71" gradientUnits="userSpaceOnUse"><stop stop-color="#DFCB98"/><stop offset="1" stop-color="#E6D6AD"/></linearGradient><linearGradient id="paint6_linear_1_72" x1="43.819" y1="45.375" x2="47.293" y2="40.059" gradientUnits="userSpaceOnUse"><stop stop-color="#DFCB98"/><stop offset="1" stop-color="#E6D6AD"/></linearGradient><filter id="filter0_d_1_72" x="8.313" y="13.142" width="78.167" height="75.786" filterUnits="userSpaceOnUse" color-interpolation-filters="sRGB"><feFlood flood-opacity="0" result="BackgroundImageFix"/><feColorMatrix in="SourceAlpha" values="0 0 0 0 0 0 0 0 0 0 0 0 0 0 0 0 0 0 127 0" result="hardAlpha"/><feOffset dy="4"/><feGaussianBlur stdDeviation="2"/><feComposite in2="hardAlpha" operator="out"/><feColorMatrix values="0 0 0 0 0 0 0 0 0 0 0 0 0 0 0 0 0 0 0.25 0"/><feBlend in2="BackgroundImageFix" result="effect1_dropShadow_1_72"/><feBlend in="SourceGraphic" in2="effect1_dropShadow_1_72" result="shape"/></filter></defs></svg>