<svg width="94" height="94" fill="none" xmlns="http://www.w3.org/2000/svg"><g filter="url(#filter0_d_1_126)"><path d="M24.936 61.165a1.32 1.32 0 00-1.39-.68c-2.732.462-10.599.708-11.21-11.54-.76-14.846 17.262-40.198 43.694-35.155 21.235 4.047 5.38 24.24 18.388 29.334 7.612 2.982 14.493 18.272-2.413 31.553-9.14 7.182-32.608 13.525-47.07-13.512z" fill="url(#paint0_linear_1_126)"/></g><path d="M1.39 54.965a1.39 1.39 0 110-2.78 1.39 1.39 0 010 2.78zm0-1.853a.463.463 0 10.462.463.463.463 0 00-.463-.458v-.005zM64.323 2.778a1.389 1.389 0 110-2.778 1.389 1.389 0 010 2.778zm0-1.852a.463.463 0 100 .926.463.463 0 000-.926zm19.545 79.919a1.389 1.389 0 110-2.777 1.389 1.389 0 010 2.777zm0-1.852a.463.463 0 10.463.463.463.463 0 00-.463-.459v-.004zm8.136-48.626a.463.463 0 00-.463-.463h-.5a.463.463 0 100 .926h.5a.463.463 0 00.463-.463zm.283-.268a.463.463 0 00.463-.463v-.52a.464.464 0 00-.926 0v.52a.463.463 0 00.463.463zm1.25-.195h-.5a.463.463 0 100 .926h.5a.463.463 0 100-.926zm-1.25.75a.463.463 0 00-.463.463v.496a.464.464 0 00.926 0v-.496a.463.463 0 00-.463-.463zm-61.091 61.67a.463.463 0 00-.463-.463h-.5a.463.463 0 000 .926h.5a.463.463 0 00.463-.463zm.292-.283a.463.463 0 00.463-.463v-.5a.463.463 0 00-.778-.304.463.463 0 00-.148.304v.5a.463.463 0 00.463.463zm1.241-.181h-.5a.463.463 0 00-.304.779.463.463 0 00.304.148h.5a.463.463 0 000-.926zm-1.241.75a.463.463 0 00-.463.464v.5a.463.463 0 00.778.304.463.463 0 00.148-.304v-.5a.463.463 0 00-.463-.463z" fill="#B2A175"/><path d="M60.952 57.229c-5.909 6.094-14.577 9.298-23.514 7.506-13.975-2.806-23.195-15.915-20.375-29.89 2.82-13.975 16.152-23.616 30.127-20.838l-4.547 25.63L60.952 57.23z" fill="#fff"/><path d="M23.07 42.717a16.414 16.414 0 01-.214-2.894 19.678 19.678 0 0123.482-19.287l-1.764 8.752s-6.761-1.644-11.077 4.515c0 0-2.537 4.126-1.653 7.77l-8.775 1.144z" fill="url(#paint1_linear_1_126)"/><path d="M56.613 53.534a19.66 19.66 0 01-33.507-10.549l-6.043 1.005s2.358 17.54 20.333 21.18c0 0 14.855 2.742 23.45-7.478l-4.233-4.158z" fill="url(#paint2_linear_1_126)"/><path d="M72.63 44.847c-1.158 4.417-3.57 7.774-6.57 10.868L48 38.23l5.094-25.306.32-.463c13.974 2.806 22.805 16.901 20.003 30.876-.115.496-.657 1.019-.787 1.51z" fill="#fff"/><path d="M49.852 27.279l-1.99 10.386 7.589 7.617s4.301-4.718 2.685-10.15c-2.45-8.215-8.284-7.853-8.284-7.853z" fill="url(#paint3_linear_1_126)"/><path d="M55.45 45.282s10.794 1.973 13.244-10.187c2.649-13.17-10.039-20.481-10.039-20.481s14.883 4.931 14.841 22.893c0 0 .218 9.831-6.117 17.448L61.665 51.4l-6.214-6.117z" fill="url(#paint4_linear_1_126)"/><path d="M59.553 85.8l1.445-10.29 1.144.185-.037-4.167a17.134 17.134 0 01-1.362-13.517s1.987-7.121 1.853-9.631c0 0 .602-2.667 1.852-2.69 1.25-.024 1.82 3.306 1.82 3.306l.037 2.778.578 4.334 6.743-7.274s-.186-1.278-.741-4.247c0 0 1.338-5.491.76-9.14.583.768 4.134 9.691 4.134 9.691l1.63 4.53-9.127 20.767.176 4.677h.982l2.06 9.97s-2.671 1.926-10.71.17l-3.237.547z" fill="#fff"/><path d="M61.327 76.024s.315 5.474 3.149 5.557c2.834.083 4.63-2.278 4.63-2.278s-1.616 6.455-9.506 6.482l1.727-9.76z" fill="url(#paint5_linear_1_126)"/><path d="M71.37 76.126l2.047 9.076s-3.973 1.39-7.932.565l-1.852-.514s6.594-4.27 7.738-9.127z" fill="url(#paint6_linear_1_126)"/><path d="M15.744 10.136a.463.463 0 00-.463-.463h-.463a.463.463 0 100 .926h.463a.463.463 0 00.463-.463zm.301-.286a.463.463 0 00.463-.464v-.5a.463.463 0 00-.926 0v.5a.463.463 0 00.463.463zm.319.286a.463.463 0 00.431.463h.495a.463.463 0 000-.926h-.495a.463.463 0 00-.43.463zm.144 1.25v-.5a.463.463 0 00-.926 0v.5a.463.463 0 00.778.304.463.463 0 00.148-.303zm63.137 38.161a1.668 1.668 0 00.028-1.283c-.782-2.028-3.853-9.96-4.255-11.016a7.814 7.814 0 00-1.38-2.519 26.292 26.292 0 00-20.324-22.805 1.058 1.058 0 00-.815.143c-.238.16-.404.409-.463.69l-5 24.348a1.079 1.079 0 00.305.99l13.993 13.53a43.243 43.243 0 01-1.078 4.682L43.059 39.272a.143.143 0 01-.041-.135l4.862-24.366a1.086 1.086 0 00-.167-.82 1.074 1.074 0 00-.694-.462 26.278 26.278 0 00-9.882 51.616 26.13 26.13 0 0022.736-6.047 18.092 18.092 0 001.852 12.266l-.218 3.705h-.166a.995.995 0 00-.926.847l-1.33 9.16a.978.978 0 00.598 1.055.998.998 0 00.389.079.568.568 0 00.125 0c.856-.106 1.7-.293 2.52-.56 1.872.453 3.79.687 5.718.699a16.89 16.89 0 004.82-.644.986.986 0 00.686-1.148l-1.945-9.4a.64.64 0 00-.144-.464.656.656 0 00-.556-.245l-.393.023-.172-4.505a.76.76 0 01.06-.334l8.854-20.045zm-6.482-1.25a33.793 33.793 0 00-2.589 2.579 25.975 25.975 0 002.209-4.774c.134.981.273 1.796.343 2.195h.037zM53.316 12.965a.154.154 0 01.07-.097.116.116 0 01.06 0h.046a25.491 25.491 0 0119.272 29.71c-.102.495-.213.986-.338 1.468a25.352 25.352 0 01-5.093 9.812l-.209-2.468v-.14c-.102-2.639-.227-5.908-2.588-5.843-2.44.079-2.612 3.357-2.69 4.936v.167l-5.816-5.654a11.183 11.183 0 00-5.506-18.35l2.792-13.54zm-2.973 14.448a10.261 10.261 0 015.029 16.8l-7.015-6.784a.147.147 0 01-.042-.135l2.028-9.881zM42.37 39.938l7.132 6.9a10.187 10.187 0 01-7.053 2.815 10.28 10.28 0 110-20.56c.527.004 1.054.047 1.575.13l-1.96 9.724a1.071 1.071 0 00.306.991zm-24.652-6.02a25.269 25.269 0 0124.685-19.91c1.493-.001 2.984.13 4.454.388.038.008.07.03.093.06a.177.177 0 010 .12l-2.778 13.716a11.206 11.206 0 00-12.882 12.41l-13.892 2.279a25.042 25.042 0 01.32-9.049v-.013zm19.61 30.266A25.15 25.15 0 0121.25 53.13a25.551 25.551 0 01-3.705-9.261l13.943-2.241a11.23 11.23 0 0010.979 8.95 11.11 11.11 0 007.728-3.088l10.15 9.816-.028.088a25.222 25.222 0 01-22.99 6.803v-.014zM72.982 84.78c-1.176.356-4.232 1.018-8.729.194 4.112-1.991 6.22-5.816 7.155-8.113l1.62 7.84a.065.065 0 01-.041.092l-.005-.013zm-12.905.463a.079.079 0 01-.07-.024.055.055 0 010-.055l1.33-9.155a.064.064 0 01.06-.055l9.585-.588c-.69 2.139-3.45 8.974-10.9 9.89l-.005-.013zM69.972 74.5l-7.548.463.209-3.598a.977.977 0 00-.13-.56 17.012 17.012 0 01-1.38-12.924c.056-.18.107-.357.167-.538l.093-.31c.222-.75.791-2.746 1.134-4.63.07-.385.13-.76.176-1.12.046-.362.074-.645.088-.927.148-2.848.671-4.024 1.797-4.056h.037c1.3 0 1.495 2.24 1.602 4.954l.296 3.529.107 1.232.208 2.45a.464.464 0 00.926.022.753.753 0 000-.102l-.236-2.745c1.032-1.181 4.992-5.682 6.311-6.706a.658.658 0 00.246-.634c-.079-.463-.39-2.26-.723-4.167.12-.463.232-.926.33-1.417.397-1.98.565-4 .5-6.02.138.315.259.63.36.894a6619.09 6619.09 0 004.256 11.002.76.76 0 010 .579l-8.83 20.073a1.69 1.69 0 00-.14.74l.144 4.516z" fill="#B2A175"/><path d="M59.614 27.163a15.026 15.026 0 012.81 13.725.463.463 0 10.83.412.398.398 0 000-.08h.022a16 16 0 00-2.963-14.655.463.463 0 00-.148-.12.463.463 0 00-.565.708l.014.01zM31.386 66.48a.46.46 0 00-.329.14l-7.575 7.575a.464.464 0 10.652.653l7.58-7.576a.463.463 0 00-.328-.791zm6.293 6.465a.464.464 0 00-.33.139l-3.63 3.63a.148.148 0 01-.106.042H18.06a.463.463 0 100 .926h15.554a1.067 1.067 0 00.76-.315l3.63-3.63a.463.463 0 00-.324-.792zm-1.903-54.724a.495.495 0 00.143-.028 22.332 22.332 0 016.89-1.06.463.463 0 000-.926 23.193 23.193 0 00-7.154 1.111.463.463 0 00.12.903zM19.874 39.79a.463.463 0 00.62-.204.464.464 0 00.047-.208 22.143 22.143 0 0112.364-19.93.463.463 0 00-.204-.875.43.43 0 00-.204.056 23.069 23.069 0 00-12.877 20.73.463.463 0 00.254.431zM39.16 52.997a.479.479 0 00-.087 0 14.109 14.109 0 01-9.484-8.734.463.463 0 00-.227-.254.463.463 0 00-.653.578 15.04 15.04 0 0010.109 9.262.463.463 0 00.324-.852h.018zm10.493-1.084a.463.463 0 00-.412 0 13.93 13.93 0 01-6.427 1.551.463.463 0 00-.208.87.463.463 0 00.208.047 14.85 14.85 0 006.853-1.653.464.464 0 00.204-.2.463.463 0 00-.218-.615zm4.325-29.015a15.11 15.11 0 013.77 2.357.641.641 0 00.088.07.463.463 0 00.62-.21.463.463 0 00-.111-.573 16.028 16.028 0 00-4.001-2.5.431.431 0 00-.185-.043.463.463 0 00-.463.464.462.462 0 00.282.435z" fill="#B2A175"/><path d="M29.395 71.019a2.154 2.154 0 00-.102 3.803 2.158 2.158 0 10.102-3.803zm2.065 1.389a1.223 1.223 0 11-1.102-.681c.132 0 .263.023.389.065a1.22 1.22 0 01.713.602v.014zm-6.404-6.15a2.158 2.158 0 100 4.317 2.158 2.158 0 000-4.317zm0 3.39a1.232 1.232 0 110-2.465 1.232 1.232 0 010 2.465z" fill="#B2A175"/><defs><linearGradient id="paint0_linear_1_126" x1="-4.569" y1="68.828" x2="45.036" y2="-9.787" gradientUnits="userSpaceOnUse"><stop stop-color="#E7D5A7"/><stop offset="1" stop-color="#EDE3C9"/></linearGradient><linearGradient id="paint1_linear_1_126" x1="17.204" y1="38.7" x2="33.673" y2="12.453" gradientUnits="userSpaceOnUse"><stop stop-color="#DFCB98"/><stop offset="1" stop-color="#E6D6AD"/></linearGradient><linearGradient id="paint2_linear_1_126" x1="6.53" y1="61.493" x2="17.56" y2="28.672" gradientUnits="userSpaceOnUse"><stop stop-color="#DFCB98"/><stop offset="1" stop-color="#E6D6AD"/></linearGradient><linearGradient id="paint3_linear_1_126" x1="45.302" y1="42.075" x2="59.832" y2="28.936" gradientUnits="userSpaceOnUse"><stop stop-color="#DFCB98"/><stop offset="1" stop-color="#E6D6AD"/></linearGradient><linearGradient id="paint4_linear_1_126" x1="51.109" y1="47.769" x2="81.612" y2="26.886" gradientUnits="userSpaceOnUse"><stop stop-color="#DFCB98"/><stop offset="1" stop-color="#E6D6AD"/></linearGradient><linearGradient id="paint5_linear_1_126" x1="57.313" y1="84.046" x2="64.638" y2="73.128" gradientUnits="userSpaceOnUse"><stop stop-color="#DFCB98"/><stop offset="1" stop-color="#E6D6AD"/></linearGradient><linearGradient id="paint6_linear_1_126" x1="61.279" y1="84.264" x2="68.669" y2="73.089" gradientUnits="userSpaceOnUse"><stop stop-color="#DFCB98"/><stop offset="1" stop-color="#E6D6AD"/></linearGradient><filter id="filter0_d_1_126" x="8.313" y="13.137" width="78.167" height="75.762" filterUnits="userSpaceOnUse" color-interpolation-filters="sRGB"><feFlood flood-opacity="0" result="BackgroundImageFix"/><feColorMatrix in="SourceAlpha" values="0 0 0 0 0 0 0 0 0 0 0 0 0 0 0 0 0 0 127 0" result="hardAlpha"/><feOffset dy="4"/><feGaussianBlur stdDeviation="2"/><feComposite in2="hardAlpha" operator="out"/><feColorMatrix values="0 0 0 0 0 0 0 0 0 0 0 0 0 0 0 0 0 0 0.25 0"/><feBlend in2="BackgroundImageFix" result="effect1_dropShadow_1_126"/><feBlend in="SourceGraphic" in2="effect1_dropShadow_1_126" result="shape"/></filter></defs></svg>