<svg width="94" height="94" fill="none" xmlns="http://www.w3.org/2000/svg"><g clip-path="url(#clip0_1_215)"><g filter="url(#filter0_d_1_215)"><path d="M25.005 61.188a1.319 1.319 0 00-1.39-.68c-2.736.462-10.598.703-11.21-11.545-.74-14.85 17.263-40.211 43.699-35.169 21.23 4.052 5.38 24.25 18.383 29.349 7.617 2.982 14.498 18.276-2.408 31.561-9.145 7.183-32.608 13.531-47.074-13.516z" fill="url(#paint0_linear_1_215)"/></g><path d="M50.69 94a1.39 1.39 0 110-2.779 1.39 1.39 0 010 2.779zm0-1.852a.463.463 0 100 .925.463.463 0 000-.925zM6.946 39.679a1.389 1.389 0 110-2.778 1.389 1.389 0 010 2.778zm0-1.852a.463.463 0 10.463.463.463.463 0 00-.463-.459v-.004zm75.746-23.523a1.39 1.39 0 110-2.78 1.39 1.39 0 010 2.78zm0-1.853a.463.463 0 100 .927.463.463 0 000-.927zM33.715 1.676a.463.463 0 00-.463-.463h-.5a.463.463 0 100 .926h.5a.463.463 0 00.463-.463zm.287-.286a.463.463 0 00.463-.464v-.5a.463.463 0 00-.926 0v.5a.463.463 0 00.463.463zm1.25-.177h-.5a.463.463 0 100 .926h.5a.463.463 0 100-.926zm-1.25.75a.463.463 0 00-.463.463v.5a.463.463 0 00.926 0v-.5a.463.463 0 00-.463-.463zm58.002 57.062a.463.463 0 00-.463-.463h-.5a.463.463 0 100 .926h.5a.463.463 0 00.463-.463zm.283-.287a.463.463 0 00.463-.463v-.495a.464.464 0 00-.926 0v.495a.463.463 0 00.463.463zm1.25-.176h-.5a.463.463 0 100 .926h.5a.463.463 0 100-.926zm-1.25.751a.463.463 0 00-.463.463v.5a.464.464 0 00.926 0v-.5a.463.463 0 00-.463-.464zM1.426 80.97a.463.463 0 00-.463-.463h-.5a.463.463 0 000 .926h.5a.463.463 0 00.463-.463zm.287-.287a.463.463 0 00.463-.463v-.5a.463.463 0 00-.778-.304.463.463 0 00-.148.303v.5a.463.463 0 00.463.464zm1.246-.176h-.5a.463.463 0 000 .926h.5a.463.463 0 000-.926zm-1.246.75a.463.463 0 00-.463.463v.5a.463.463 0 00.778.304.463.463 0 00.148-.304v-.5a.463.463 0 00-.463-.463z" fill="#B2A175"/><path d="M58.428 78.937a1.297 1.297 0 001.297-1.297v-4.39a.218.218 0 00-.218-.217h-2.241a.217.217 0 01-.218-.218v-2.611a.218.218 0 01.218-.218h2.241a.218.218 0 00.218-.213v-2.315a.217.217 0 00-.218-.213h-2.241a.218.218 0 01-.218-.218v-2.616a.217.217 0 01.218-.213h2.241a.218.218 0 00.218-.218v-2.394a.218.218 0 00-.218-.218h-2.241a.218.218 0 01-.218-.212v-2.617a.218.218 0 01.218-.217h2.241a.214.214 0 00.218-.213v-4.733a1.297 1.297 0 00-1.297-1.296H34.164a1.297 1.297 0 00-1.296 1.296v4.742a.213.213 0 00.217.213h2.246a.218.218 0 01.213.217v2.617a.217.217 0 01-.213.213h-2.246a.218.218 0 00-.208.208v2.39a.218.218 0 00.217.217h2.237a.217.217 0 01.213.213v2.616a.217.217 0 01-.213.218h-2.246a.218.218 0 00-.217.213v2.315a.218.218 0 00.217.213h2.246a.217.217 0 01.213.218v2.612a.217.217 0 01-.213.217h-2.246a.218.218 0 00-.217.218v4.39a1.301 1.301 0 001.296 1.296l24.264.005z" fill="#fff"/><path d="M39.758 52.08v26.787h19.244l.723-1.227v-4.922l-2.765.097v-2.611l2.765-.431v-2.31l-2.765-.431.223-2.83 2.542-.217-.223-2.607-2.542-.213.223-2.834 2.542-.213v-5.085l-1.339-.953H39.758z" fill="url(#paint1_linear_1_215)"/><path d="M48.13 58.794h-7.284c-.601 0-1.088.487-1.088 1.088v11.252c0 .601.487 1.088 1.088 1.088h7.284c.6 0 1.088-.487 1.088-1.088V59.882c0-.6-.487-1.088-1.088-1.088zm1.088.014h2.278v2.848a.57.57 0 01-.57.57h-1.138a.57.57 0 01-.57-.57v-2.848z" fill="#fff"/><path d="M41.346 58.808h2.278v2.848a.569.569 0 01-.56.555h-1.148a.57.57 0 01-.57-.57v-2.833z" fill="url(#paint2_linear_1_215)"/><path d="M45.514 58.808h2.278v2.848a.57.57 0 01-.57.57h-1.139a.57.57 0 01-.57-.57v-2.848z" fill="#fff"/><path d="M45.333 58.808h1.14v3.014a.403.403 0 01-.404.403h-.333a.403.403 0 01-.403-.403v-3.014z" fill="url(#paint3_linear_1_215)"/><path d="M49.788 68.722h1.148a.57.57 0 01.57.57v2.847h-2.279v-2.848a.57.57 0 01.56-.57z" fill="#fff"/><path d="M41.916 68.722h1.148a.57.57 0 01.57.57v2.847h-2.288v-2.848a.57.57 0 01.57-.57z" fill="url(#paint4_linear_1_215)"/><path d="M45.62 68.722h1.149a.57.57 0 01.569.57v2.847H45.05v-2.848a.57.57 0 01.57-.57z" fill="#fff"/><path d="M45.61 68.722h.431a.43.43 0 01.431.43v2.992H45.18v-2.992a.43.43 0 01.43-.43z" fill="url(#paint5_linear_1_215)"/><path d="M39.068 52.08v-2.473a.189.189 0 01.213-.167h2.394a.19.19 0 01.213.167v2.473h-2.82z" fill="url(#paint6_linear_1_215)"/><path d="M44.675 52.08v-2.473a.199.199 0 01.218-.167h2.385a.195.195 0 01.213.167v2.473h-2.816z" fill="#fff"/><path d="M44.574 52.265v-2.56c0-.098.05-.172.115-.172h1.297c.065 0 .116.074.116.171v2.561h-1.528z" fill="url(#paint7_linear_1_215)"/><path d="M50.288 52.08v-2.473a.199.199 0 01.217-.167h2.38a.199.199 0 01.218.167v2.473h-2.815z" fill="#fff"/><path d="M53.103 78.881v2.477a.2.2 0 01-.218.167h-2.38a.2.2 0 01-.217-.167v-2.477h2.815z" fill="url(#paint8_linear_1_215)"/><path d="M47.49 78.881v2.477a.2.2 0 01-.212.167h-2.362a.199.199 0 01-.217-.167v-2.477h2.792z" fill="#fff"/><path d="M47.597 78.72v2.56c0 .097-.05.171-.115.171h-1.297c-.065 0-.12-.074-.12-.171v-2.56h1.532z" fill="url(#paint9_linear_1_215)"/><path d="M41.879 78.881v2.477a.194.194 0 01-.213.167H39.28a.194.194 0 01-.213-.167v-2.477h2.81zm14.864-22.393a1.361 1.361 0 100-2.723 1.361 1.361 0 000 2.723z" fill="#fff"/><path d="M35.905 56.488a1.361 1.361 0 100-2.723 1.361 1.361 0 000 2.723z" fill="url(#paint10_linear_1_215)"/><path d="M35.905 77.325a1.361 1.361 0 100-2.722 1.361 1.361 0 000 2.722z" fill="url(#paint11_linear_1_215)"/><path d="M56.692 77.487a1.361 1.361 0 100-2.722 1.361 1.361 0 000 2.722z" fill="#fff"/><path d="M51.695 46.032a1.361 1.361 0 100-2.723 1.361 1.361 0 000 2.723z" fill="url(#paint12_linear_1_215)"/><path d="M64.953 63.97a1.361 1.361 0 100-2.722 1.361 1.361 0 000 2.723z" fill="url(#paint13_linear_1_215)"/><path d="M26.954 70.083a1.361 1.361 0 100-2.723 1.361 1.361 0 000 2.723z" fill="url(#paint14_linear_1_215)"/><path d="M56.33 29.409a11.171 11.171 0 01-2.079 2.153 1.273 1.273 0 11-.564.426 11.201 11.201 0 01-17.513-7.826 1.26 1.26 0 11-.283-2.023c.075.04.147.086.213.139.036-.782.15-1.557.343-2.316l.134-.05a2.28 2.28 0 01-.366.092l-3.12.463a.195.195 0 00-.158.148l-.926 3.964a.194.194 0 00.079.204l2.607 1.782a2.458 2.458 0 01.74 3.242l-1.57 2.737a.19.19 0 000 .217l2.538 3.181a.195.195 0 00.209.065l3.014-.926a2.463 2.463 0 013.029 1.5l1.157 2.936a.195.195 0 00.18.12h4.066a.19.19 0 00.181-.12l1.162-2.936a2.454 2.454 0 013.005-1.449l3.02.926a.2.2 0 00.208-.065l2.533-3.18a.19.19 0 000-.219l-1.575-2.736a2.459 2.459 0 01.746-3.242l2.602-1.782.033-.037-3.858 2.51.214 2.102zm-18.059 4.227a1.264 1.264 0 110-1.783 1.258 1.258 0 01-.014 1.783h.014zm8.664 3.94a1.264 1.264 0 11.274-1.375 1.255 1.255 0 01-.288 1.376h.014z" fill="url(#paint15_linear_1_215)"/><path d="M59.137 20.203h-2.052l-1.227-.19a2.391 2.391 0 01-.68-.217h-.042a2.459 2.459 0 01-1.08-1.07l.154-.334-.375-.337a2.517 2.517 0 01-.042-.621l.232-3.149a.19.19 0 00-.112-.19l-3.662-1.764a.18.18 0 00-.213.033l-1.075.657c-.634.611-1.231.926-1.556 1.32a1.389 1.389 0 01-1.199.542c-.648.041-1.315.097-1.852-.375l-2.315-2.144a.19.19 0 00-.218-.033l-3.658 1.764a.19.19 0 00-.111.19l.231 3.149v.241a2.028 2.028 0 01-.828 1.773c-.089.07-.176.13-.26.186a2.458 2.458 0 01-.375.203c-.079.03-.16.054-.24.074l-.121.042a11.543 11.543 0 00-.343 2.315 1.269 1.269 0 01.32 1.565c-.065.12-.15.228-.25.32A11.2 11.2 0 0053.7 31.979a.963.963 0 01.107-.135 1.31 1.31 0 01.463-.292 11.172 11.172 0 002.08-2.153l.402-1.792 3.241-2.848a.198.198 0 00.047-.166l-.903-4.39zm-8.447-5.45a1.265 1.265 0 11.01 2.529 1.265 1.265 0 01-.01-2.53zm-9.307 0a1.264 1.264 0 11.01 2.529 1.264 1.264 0 01-.01-2.53zm4.63 17.318a6.117 6.117 0 11.015 0h-.014zm11.684-7.923a1.264 1.264 0 110-1.782 1.26 1.26 0 01.013 1.782h-.014z" fill="#fff"/><path d="M31.427 31.33l1.218-.926a.245.245 0 00.088-.264l-.648-2.315a.24.24 0 00-.213-.176l-1.523-.158a1.968 1.968 0 01-1.77-2l.038-1.533a.259.259 0 00-.153-.236l-2.213-.926a.241.241 0 00-.274.056l-1.07 1.088a1.973 1.973 0 01-2.68.139l-1.177-.982a.236.236 0 00-.273-.028l-2.111 1.149a.242.242 0 00-.125.245l.185 1.523a1.964 1.964 0 01-1.556 2.168l-1.505.305a.245.245 0 00-.19.2l-.412 2.366a.255.255 0 00.116.254l1.306.801a1.964 1.964 0 01.722 2.57l-.695 1.39a.246.246 0 00.033.273l1.593 1.8a.236.236 0 00.268.07l1.44-.518a1.963 1.963 0 012.46 1.037l.634 1.39a.245.245 0 00.236.143l2.403-.12a.24.24 0 00.218-.168l.49-1.449a1.972 1.972 0 012.348-1.278l1.487.375a.255.255 0 00.259-.092l1.39-1.955a.255.255 0 000-.277l-.83-1.288a1.963 1.963 0 01.486-2.653zm-7.25 3.927a3.87 3.87 0 11-.38-7.733 3.87 3.87 0 01.38 7.733z" fill="url(#paint16_linear_1_215)"/><path d="M32.01 27.52s-2.05.096-2.93-.51c-.88-.607-.616-3.288-.616-3.288l-2.213-.926-1.39 1.528a6.289 6.289 0 106.127 7.724l1.889-1.727-.866-2.802zm-7.834 7.737a3.87 3.87 0 11-.38-7.732 3.87 3.87 0 01.38 7.732z" fill="#fff"/><path d="M78.58 33.131l2.14-1.287a.245.245 0 00.115-.255l-.504-3.005a.24.24 0 00-.19-.199l-2.44-.519a1.815 1.815 0 01-1.427-2.014l.324-2.477a.245.245 0 00-.12-.25l-2.667-1.477a.235.235 0 00-.273 0l-1.931 1.588a1.82 1.82 0 01-2.464-.144L67.411 21.3a.26.26 0 00-.273-.055l-2.815 1.162a.235.235 0 00-.153.232l.037 2.722a1.57 1.57 0 01-1.426 1.589l-2.709.254a.24.24 0 00-.213.176l-.852 2.927a.24.24 0 00.088.264l1.973 1.528a1.815 1.815 0 01.407 2.436l-1.366 2.088a.245.245 0 000 .278l1.76 2.486a.246.246 0 00.259.097l2.431-.588a1.82 1.82 0 012.158 1.2l.778 2.375a.25.25 0 00.222.167l3.042.176a.246.246 0 00.237-.144l1.05-2.264a1.82 1.82 0 012.283-.926l2.316.87a.254.254 0 00.273-.069l2.033-2.264a.245.245 0 00.037-.278l-1.116-2.232a1.82 1.82 0 01.708-2.376zm-3.037-1.18a5.644 5.644 0 11-11.27-.659 5.644 5.644 0 0111.27.659z" fill="url(#paint17_linear_1_215)"/><path d="M71.31 23.616l-1.417.148-2.482-2.463-3.269 1.389-.12 3.806-1.084.824-3.102.37-.838 3.108 2.732 2.352.143.755-1.782 3.088 1.815 2.515 3.672-.64a8.147 8.147 0 105.732-15.252zm-1.745 13.627a5.645 5.645 0 11.014 0h-.014z" fill="#fff"/><path d="M51.96 58.345H40.984a1.75 1.75 0 00-1.69 1.75V70.93a1.76 1.76 0 001.76 1.76H51.89a1.76 1.76 0 001.76-1.76V60.095a1.75 1.75 0 00-1.69-1.75zm-.927.926v2.385a.107.107 0 01-.106.106h-1.14a.108.108 0 01-.075-.031.106.106 0 01-.03-.075V59.27h1.351zm-3.885 0v2.385a.107.107 0 01-.066.098.107.107 0 01-.04.008h-1.14a.107.107 0 01-.106-.106V59.27h1.352zm-3.885 0v2.385a.107.107 0 01-.106.106h-1.14a.107.107 0 01-.106-.106V59.27h1.352zM41.911 71.69v-2.385a.107.107 0 01.106-.106h1.14a.107.107 0 01.106.106v2.385h-1.352zm3.885 0v-2.385a.107.107 0 01.107-.106h1.139a.107.107 0 01.106.106v2.385h-1.352zm3.885 0v-2.385a.105.105 0 01.031-.075.107.107 0 01.076-.031h1.148a.107.107 0 01.106.106v2.385h-1.36zm3.042-.75a.83.83 0 01-.764.824v-2.459a1.033 1.033 0 00-1.032-1.032h-1.14a1.033 1.033 0 00-1.032 1.032v2.468h-.68v-2.468a1.032 1.032 0 00-1.033-1.032h-1.14a1.033 1.033 0 00-1.032 1.032v2.468h-.68v-2.468a1.032 1.032 0 00-1.033-1.032h-1.14a1.032 1.032 0 00-1.032 1.032v2.468a.828.828 0 01-.764-.824V60.114a.829.829 0 01.764-.843v2.375a1.033 1.033 0 001.032 1.033h1.14a1.033 1.033 0 001.032-1.033v-2.375h.681v2.385a1.032 1.032 0 001.033 1.032h1.139a1.032 1.032 0 001.032-1.032V59.27h.681v2.385a1.033 1.033 0 001.033 1.032h1.148a1.032 1.032 0 001.033-1.032V59.27a.829.829 0 01.764.824l-.01 10.845z" fill="#B2A175"/><path d="M58.428 51.617h-4.862v-2.01a.658.658 0 00-.68-.63h-2.38a.657.657 0 00-.681.63v2.01h-1.853v-2.01a.657.657 0 00-.676-.63h-.745v-3.843h3.394a1.825 1.825 0 100-.926h-8.154a.926.926 0 01-.926-.926v-5.45a.463.463 0 00-.927 0v5.45a1.852 1.852 0 001.853 1.852h3.83v3.843h-.705a.657.657 0 00-.68.63v2.01h-1.853v-2.01a.655.655 0 00-.708-.63H39.28a.652.652 0 00-.676.63v2.01h-4.44a1.76 1.76 0 00-1.756 1.76v4.74a.675.675 0 00.676.69h1.996v2.122h-1.996a.676.676 0 00-.671.657v2.39a.676.676 0 00.676.68h1.996v2.121h-2a.676.676 0 00-.672.685v2.316a.676.676 0 00.676.676h1.996v2.12h-2a.676.676 0 00-.672.677v4.39a1.76 1.76 0 001.755 1.759h4.44v1.852a.651.651 0 00.676.63h2.39a.653.653 0 00.676-.63V79.4h1.852v1.852a.656.656 0 00.713.644H47.3a.658.658 0 00.676-.63v-1.852h1.852v1.852a.657.657 0 00.681.63h2.38a.657.657 0 00.68-.63v-1.852h4.863a1.76 1.76 0 001.76-1.76v-4.39a.68.68 0 00-.681-.68h-2v-2.121h1.995a.68.68 0 00.68-.676v-2.315a.675.675 0 00-.68-.676H57.51v-2.121h1.996a.68.68 0 00.68-.681v-2.408a.68.68 0 00-.68-.68H57.51v-2.098h1.996a.676.676 0 00.68-.676v-4.756a1.76 1.76 0 00-1.759-1.76zm-6.733-7.845a.899.899 0 110 1.798.899.899 0 010-1.798zm-.926 6.131h1.89v1.714H50.75l.018-1.714zm-5.612 0h1.89v1.714h-1.908l.018-1.714zm-5.607 0h1.884v1.714h-1.903l.019-1.714zm1.884 31.067h-1.903V79.4h1.885l.018 1.57zm5.612 0H45.14V79.4h1.889l.018 1.57zm5.612 0h-1.907V79.4h1.889l.018 1.57zm6.613-23.088h-1.996a.68.68 0 00-.68.68v2.617a.675.675 0 00.68.676h1.996v1.898h-1.996a.68.68 0 00-.68.68v2.613a.68.68 0 00.68.68h1.996v1.81h-1.996a.68.68 0 00-.68.681v2.612a.68.68 0 00.68.68h1.996v4.145a.838.838 0 01-.834.834H34.164a.834.834 0 01-.829-.834V73.51h1.996a.68.68 0 00.676-.68v-2.612a.68.68 0 00-.676-.681H33.34v-1.81h1.991a.68.68 0 00.676-.681v-2.612a.681.681 0 00-.676-.68H33.34v-1.9h1.991a.676.676 0 00.676-.675v-2.617a.68.68 0 00-.676-.68H33.34V53.39a.834.834 0 01.829-.833h24.264a.838.838 0 01.833.833l.005 4.492z" fill="#B2A175"/><path d="M56.743 53.302a1.824 1.824 0 100 3.648 1.824 1.824 0 000-3.648zm0 2.723a.898.898 0 11.898-.899.893.893 0 01-.898.903v-.004zM35.96 53.302a1.825 1.825 0 10-.008 3.65 1.825 1.825 0 00.009-3.65zm0 2.723a.898.898 0 11.828-.554.9.9 0 01-.827.558v-.004zm18.907 20.101a1.824 1.824 0 103.648 0 1.824 1.824 0 00-3.648 0zm1.82-.898a.898.898 0 11.01 1.795.898.898 0 01-.01-1.795zm-20.782-.926a1.825 1.825 0 100 3.649 1.825 1.825 0 000-3.65zm0 2.718a.898.898 0 110-1.797.898.898 0 010 1.797zm-4.07-51.83l2.602 1.783a2.005 2.005 0 01.607 2.662l-1.574 2.737a.657.657 0 00.055.741l2.538 3.176a.647.647 0 00.703.218l3.02-.926a2.01 2.01 0 012.44 1.176l1.158 2.94a.657.657 0 00.61.413h4.066a.663.663 0 00.612-.412l1.162-2.94a2.014 2.014 0 012.44-1.177l3.02.926a.653.653 0 00.703-.218l2.538-3.176a.658.658 0 00.055-.736l-1.574-2.742a2.004 2.004 0 01.602-2.639l2.607-1.783a.671.671 0 00.268-.69l-.926-3.963a.658.658 0 00-.537-.505l-3.12-.463a2 2 0 01-1.691-2.116l.227-3.15a.648.648 0 00-.37-.638l-3.659-1.764a.658.658 0 00-.731.106l-2.316 2.144a2 2 0 01-2.708 0l-2.316-2.144a.667.667 0 00-.731-.106L37.97 13.65a.652.652 0 00-.37.639l.231 3.149a2 2 0 01-1.713 2.116l-3.12.463a.658.658 0 00-.542.505l-.927 3.963a.662.662 0 00.306.704zm1.505-4.27l2.94-.462a2.936 2.936 0 002.473-3.103l-.213-2.963 3.33-1.607 2.176 2.033a2.94 2.94 0 003.968 0l2.181-2.02 3.334 1.608-.218 2.963a2.936 2.936 0 002.473 3.103l2.94.463.825 3.607-2.454 1.68a2.936 2.936 0 00-.88 3.877l1.482 2.579-2.316 2.89-2.848-.871a2.931 2.931 0 00-3.57 1.722l-1.093 2.779h-3.704l-1.093-2.779a2.936 2.936 0 00-3.575-1.722l-2.843.87-2.315-2.89 1.505-2.578a2.936 2.936 0 00-.884-3.89l-2.45-1.667.829-3.621z" fill="#B2A175"/><path d="M46.028 32.534a6.58 6.58 0 10-6.576-6.58 6.59 6.59 0 006.576 6.58zm0-12.23a5.653 5.653 0 11.01 11.308 5.653 5.653 0 01-.01-11.307z" fill="#B2A175"/><path d="M46.028 34.08a8.126 8.126 0 10-8.122-8.126 8.136 8.136 0 008.122 8.127zm0-15.326a7.2 7.2 0 11-7.196 7.2 7.21 7.21 0 017.196-7.2zm-4.645-1.01a1.727 1.727 0 10.01-3.453 1.727 1.727 0 00-.01 3.453zm0-2.528a.802.802 0 11.01 1.604.802.802 0 01-.01-1.604zm9.307 2.528a1.727 1.727 0 10.01-3.454 1.727 1.727 0 00-.01 3.454zm0-2.528a.802.802 0 11.01 1.604.802.802 0 01-.01-1.604zm2.779 18.749a1.709 1.709 0 001.218.505 1.728 1.728 0 001.222-2.945 1.764 1.764 0 00-2.44 0 1.724 1.724 0 000 2.44zm.653-1.783a.8.8 0 011.13 1.13.8.8 0 01-1.13-1.13zm-9.312 3.283a1.727 1.727 0 000 2.44 1.727 1.727 0 002.421-2.44 1.764 1.764 0 00-2.421 0zm1.782 1.783a.796.796 0 01-1.36-.565.792.792 0 01.796-.796.796.796 0 01.565 1.361zm10.225-12.243a1.727 1.727 0 001.222-2.945 1.764 1.764 0 00-2.44 0 1.727 1.727 0 001.218 2.945zm-.565-2.316a.806.806 0 01.565-.231.801.801 0 11-.787.797.806.806 0 01.222-.566zm-19.416 1.39a1.727 1.727 0 00-3.06-1.598 1.731 1.731 0 001.527 2.524 1.736 1.736 0 001.533-.926zm-1.903-.093a.784.784 0 01-.39-.463.803.803 0 01.245-.852.787.787 0 01.51-.185.8.8 0 01.366.088.81.81 0 01.394.463.768.768 0 01-.24.825.796.796 0 01-.885.101v.023zm1.213 9.979a1.71 1.71 0 001.218.505 1.728 1.728 0 001.222-2.945 1.764 1.764 0 00-2.44 0 1.722 1.722 0 000 2.44zm.653-1.783a.802.802 0 111.214 1.048.802.802 0 01-1.214-1.048zm44.495-.667l-.505-3.005a.7.7 0 00-.551-.579l-2.445-.518a1.361 1.361 0 01-1.06-1.482l.328-2.477a.713.713 0 00-.36-.713l-2.663-1.477a.709.709 0 00-.797.069l-1.93 1.565a1.357 1.357 0 01-1.853-.106l-1.732-1.797a.695.695 0 00-.782-.162l-2.82 1.158a.709.709 0 00-.435.666l.036 2.723a1.111 1.111 0 01-1.004 1.12l-2.714.255a.7.7 0 00-.611.51l-.852 2.926a.704.704 0 00.245.76l1.978 1.528a1.389 1.389 0 01.305 1.815l-1.389 2.088a.713.713 0 000 .797l1.76 2.486a.704.704 0 00.745.283l2.482-.588a1.357 1.357 0 011.607.889l.778 2.375a.713.713 0 00.634.463l3.043.176h.041a.709.709 0 00.644-.407l1.051-2.27a1.361 1.361 0 011.7-.698l2.342.87a.704.704 0 00.774-.194l2.032-2.27a.69.69 0 00.107-.787l-1.116-2.236a1.357 1.357 0 01.514-1.764l2.14-1.292a.703.703 0 00.333-.7zm-2.95 1.218a2.316 2.316 0 00-.866 2.978l1.051 2.102-1.852 2.047-2.2-.82a2.316 2.316 0 00-2.866 1.18l-.986 2.131-2.75-.157-.732-2.232a2.316 2.316 0 00-2.709-1.505l-2.283.555-1.588-2.245 1.287-1.968a2.316 2.316 0 00-.51-3.052l-1.851-1.44.768-2.64 2.566-.24a2.05 2.05 0 001.852-2.06l-.037-2.575 2.546-1.047 1.63 1.69a2.315 2.315 0 003.094.18l1.815-1.49 2.403 1.333-.306 2.316a2.315 2.315 0 001.788 2.528l2.315.486.463 2.714-2.042 1.231z" fill="#B2A175"/><path d="M70.26 25.514a6.108 6.108 0 10-.71 12.192h.367a6.112 6.112 0 006.089-5.755 6.112 6.112 0 00-5.747-6.437zm4.82 6.395a5.177 5.177 0 11-5.159-5.483h.31a5.177 5.177 0 014.872 5.474l-.023.009zM31.353 33.71a1.51 1.51 0 01.352-2.01l1.223-.925a.709.709 0 00.255-.755l-.653-2.316a.709.709 0 00-.612-.514l-1.523-.152a1.514 1.514 0 01-1.352-1.533l.032-1.533a.704.704 0 00-.43-.671l-2.214-.926a.694.694 0 00-.782.157l-1.075 1.084a1.505 1.505 0 01-2.037.102l-1.176-.982a.709.709 0 00-.797-.079l-2.111 1.149a.704.704 0 00-.361.708l.185 1.524a1.51 1.51 0 01-1.19 1.657l-1.5.306a.705.705 0 00-.56.574l-.418 2.366a.703.703 0 00.33.727l1.305.801a1.514 1.514 0 01.551 1.968L16.1 35.8a.699.699 0 00.107.782l1.593 1.806a.704.704 0 00.773.195l1.44-.519a1.51 1.51 0 011.88.792l.635 1.389a.704.704 0 00.643.412h.037l2.404-.12a.704.704 0 00.634-.463l.49-1.45a1.514 1.514 0 011.793-.977l1.486.375a.713.713 0 00.75-.273l1.39-1.954a.704.704 0 000-.796l-.802-1.288zm-1.255 3.376l-1.342-.338a2.44 2.44 0 00-2.894 1.579l-.463 1.31-2.107.107-.565-1.264a2.44 2.44 0 00-2.223-1.436c-.278 0-.554.05-.815.144l-1.301.463-1.39-1.58.63-1.23a2.44 2.44 0 00-.893-3.177l-1.181-.727.37-2.075 1.357-.278a2.45 2.45 0 001.917-2.653l-.171-1.39 1.852-1.004 1.06.89a2.45 2.45 0 003.297-.168l.968-.99 1.945.81-.032 1.389a2.45 2.45 0 002.18 2.477l1.39.14.57 2.027-1.103.839a2.44 2.44 0 00-.57 3.24l.746 1.168-1.231 1.727z" fill="#B2A175"/><path d="M26.894 28.177a4.335 4.335 0 10-2.912 7.547h.217a4.335 4.335 0 002.695-7.543v-.004zm-2.741 6.617a3.408 3.408 0 11-.338-6.807h.176a3.408 3.408 0 01.162 6.811v-.004zm39.045 28.279a1.82 1.82 0 100-.926h-1.542a.463.463 0 100 .926h1.542zm1.755-1.357a.899.899 0 110 1.797.899.899 0 010-1.797z" fill="#B2A175"/><path d="M68.787 45.509a.463.463 0 00-.463.463v21.36a.926.926 0 01-.927.927h-5.741a.463.463 0 000 .926h5.741a1.853 1.853 0 001.853-1.853v-21.36a.463.463 0 00-.463-.463zm-37.804 22.75h-2.274a1.825 1.825 0 100 .926h2.274a.463.463 0 000-.926zm-4.029 1.361a.898.898 0 110-1.796.898.898 0 010 1.796zm4.029-7.474h-4.922a.926.926 0 01-.926-.926V42.976a.463.463 0 00-.927 0V61.22a1.852 1.852 0 001.853 1.852h4.927a.463.463 0 100-.926h-.005z" fill="#B2A175"/></g><defs><linearGradient id="paint0_linear_1_215" x1="-4.5" y1="68.853" x2="45.131" y2="-9.776" gradientUnits="userSpaceOnUse"><stop stop-color="#E7D5A7"/><stop offset="1" stop-color="#EDE3C9"/></linearGradient><linearGradient id="paint1_linear_1_215" x1="34.954" y1="74.095" x2="56.493" y2="49.525" gradientUnits="userSpaceOnUse"><stop stop-color="#DFCB98"/><stop offset="1" stop-color="#E6D6AD"/></linearGradient><linearGradient id="paint2_linear_1_215" x1="40.798" y1="61.605" x2="43.557" y2="58.778" gradientUnits="userSpaceOnUse"><stop stop-color="#DFCB98"/><stop offset="1" stop-color="#E6D6AD"/></linearGradient><linearGradient id="paint3_linear_1_215" x1="45.059" y1="61.616" x2="47.303" y2="60.472" gradientUnits="userSpaceOnUse"><stop stop-color="#DFCB98"/><stop offset="1" stop-color="#E6D6AD"/></linearGradient><linearGradient id="paint4_linear_1_215" x1="40.796" y1="71.53" x2="43.566" y2="68.692" gradientUnits="userSpaceOnUse"><stop stop-color="#DFCB98"/><stop offset="1" stop-color="#E6D6AD"/></linearGradient><linearGradient id="paint5_linear_1_215" x1="44.869" y1="71.534" x2="47.274" y2="70.145" gradientUnits="userSpaceOnUse"><stop stop-color="#DFCB98"/><stop offset="1" stop-color="#E6D6AD"/></linearGradient><linearGradient id="paint6_linear_1_215" x1="38.389" y1="51.609" x2="40.297" y2="48.492" gradientUnits="userSpaceOnUse"><stop stop-color="#DFCB98"/><stop offset="1" stop-color="#E6D6AD"/></linearGradient><linearGradient id="paint7_linear_1_215" x1="44.206" y1="51.778" x2="46.395" y2="49.904" gradientUnits="userSpaceOnUse"><stop stop-color="#DFCB98"/><stop offset="1" stop-color="#E6D6AD"/></linearGradient><linearGradient id="paint8_linear_1_215" x1="49.61" y1="81.055" x2="51.523" y2="77.939" gradientUnits="userSpaceOnUse"><stop stop-color="#DFCB98"/><stop offset="1" stop-color="#E6D6AD"/></linearGradient><linearGradient id="paint9_linear_1_215" x1="45.696" y1="80.965" x2="47.886" y2="79.084" gradientUnits="userSpaceOnUse"><stop stop-color="#DFCB98"/><stop offset="1" stop-color="#E6D6AD"/></linearGradient><linearGradient id="paint10_linear_1_215" x1="33.889" y1="56.003" x2="35.911" y2="52.908" gradientUnits="userSpaceOnUse"><stop stop-color="#DFCB98"/><stop offset="1" stop-color="#E6D6AD"/></linearGradient><linearGradient id="paint11_linear_1_215" x1="33.889" y1="76.84" x2="35.911" y2="73.745" gradientUnits="userSpaceOnUse"><stop stop-color="#DFCB98"/><stop offset="1" stop-color="#E6D6AD"/></linearGradient><linearGradient id="paint12_linear_1_215" x1="49.679" y1="45.547" x2="51.701" y2="42.452" gradientUnits="userSpaceOnUse"><stop stop-color="#DFCB98"/><stop offset="1" stop-color="#E6D6AD"/></linearGradient><linearGradient id="paint13_linear_1_215" x1="62.936" y1="63.486" x2="64.959" y2="60.391" gradientUnits="userSpaceOnUse"><stop stop-color="#DFCB98"/><stop offset="1" stop-color="#E6D6AD"/></linearGradient><linearGradient id="paint14_linear_1_215" x1="24.938" y1="69.598" x2="26.96" y2="66.503" gradientUnits="userSpaceOnUse"><stop stop-color="#DFCB98"/><stop offset="1" stop-color="#E6D6AD"/></linearGradient><linearGradient id="paint15_linear_1_215" x1="25.277" y1="36.123" x2="37.439" y2="9.731" gradientUnits="userSpaceOnUse"><stop stop-color="#DFCB98"/><stop offset="1" stop-color="#E6D6AD"/></linearGradient><linearGradient id="paint16_linear_1_215" x1="10.806" y1="37.125" x2="23.707" y2="17.127" gradientUnits="userSpaceOnUse"><stop stop-color="#DFCB98"/><stop offset="1" stop-color="#E6D6AD"/></linearGradient><linearGradient id="paint17_linear_1_215" x1="53.741" y1="38.969" x2="69.698" y2="14.258" gradientUnits="userSpaceOnUse"><stop stop-color="#DFCB98"/><stop offset="1" stop-color="#E6D6AD"/></linearGradient><clipPath id="clip0_1_215"><path fill="#fff" d="M0 0h94v94H0z"/></clipPath><filter id="filter0_d_1_215" x="8.383" y="13.142" width="78.171" height="75.786" filterUnits="userSpaceOnUse" color-interpolation-filters="sRGB"><feFlood flood-opacity="0" result="BackgroundImageFix"/><feColorMatrix in="SourceAlpha" values="0 0 0 0 0 0 0 0 0 0 0 0 0 0 0 0 0 0 127 0" result="hardAlpha"/><feOffset dy="4"/><feGaussianBlur stdDeviation="2"/><feComposite in2="hardAlpha" operator="out"/><feColorMatrix values="0 0 0 0 0 0 0 0 0 0 0 0 0 0 0 0 0 0 0.25 0"/><feBlend in2="BackgroundImageFix" result="effect1_dropShadow_1_215"/><feBlend in="SourceGraphic" in2="effect1_dropShadow_1_215" result="shape"/></filter></defs></svg>