<svg width="94" height="94" fill="none" xmlns="http://www.w3.org/2000/svg"><g filter="url(#filter0_d_1_173)"><path d="M25.005 61.188a1.319 1.319 0 00-1.39-.68c-2.736.462-10.598.703-11.21-11.545-.74-14.85 17.263-40.211 43.699-35.169 21.23 4.052 5.38 24.25 18.383 29.349 7.617 2.982 14.498 18.276-2.408 31.561-9.145 7.183-32.608 13.531-47.074-13.516z" fill="url(#paint0_linear_1_173)"/></g><path d="M13.48 20.837a1.39 1.39 0 110-2.78 1.39 1.39 0 010 2.78zm0-1.852a.463.463 0 10.463.463.463.463 0 00-.463-.435v-.028zM84.4 34.609a1.389 1.389 0 110-2.778 1.389 1.389 0 010 2.778zm0-1.853a.463.463 0 10.464.463.463.463 0 00-.463-.458v-.005zM34.474 94a1.39 1.39 0 110-2.78 1.39 1.39 0 010 2.78zm0-1.852a.463.463 0 100 .926.463.463 0 000-.926zm19.81-90.472a.463.463 0 00-.463-.463h-.5a.463.463 0 100 .926h.5a.463.463 0 00.463-.463zm.282-.286a.463.463 0 00.463-.464v-.5a.464.464 0 00-.926 0v.5a.463.463 0 00.463.463zm1.25-.177h-.5a.463.463 0 000 .926h.5a.463.463 0 100-.926zm-1.25.75a.463.463 0 00-.463.463v.5a.463.463 0 00.778.304.464.464 0 00.148-.303v-.5a.463.463 0 00-.463-.464zM1.426 60.058a.463.463 0 00-.463-.463h-.5a.463.463 0 000 .926h.5a.463.463 0 00.463-.463zm.287-.287a.463.463 0 00.463-.463v-.5a.463.463 0 00-.778-.304.463.463 0 00-.148.304v.5a.463.463 0 00.463.463zm1.246-.176h-.5a.463.463 0 000 .926h.5a.463.463 0 000-.926zm-1.246.75a.463.463 0 00-.463.463v.5a.463.463 0 00.778.304.463.463 0 00.148-.304v-.5a.463.463 0 00-.463-.463zm90.291 13.508a.463.463 0 00-.463-.464h-.5a.463.463 0 000 .927h.5a.463.463 0 00.463-.463zm.283-.288a.463.463 0 00.463-.463v-.5a.463.463 0 00-.463-.426.463.463 0 00-.463.426v.5a.463.463 0 00.463.463zm1.25-.175h-.5a.463.463 0 000 .925h.5a.463.463 0 000-.926zm-1.25.75a.463.463 0 00-.463.463v.5a.463.463 0 00.463.426.463.463 0 00.463-.426v-.5a.463.463 0 00-.463-.463z" fill="#B2A175"/><path d="M27.584 75.316v3.056s3.052 4.098 20.375 3.797c0 0 18.452.102 20.374-4.464l-.051-2.39H27.584z" fill="#fff"/><path d="M47.977 79.47c11.255 0 20.379-2 20.379-4.464 0-2.466-9.124-4.464-20.379-4.464s-20.379 1.998-20.379 4.464c0 2.465 9.124 4.463 20.379 4.463z" fill="#fff"/><path d="M61.86 78.256v2.695s-27.177 3.913-34.267-3.038v-2.611s4.13 6.76 34.266 2.954z" fill="url(#paint1_linear_1_173)"/><path d="M57.905 78.585s-24.222.49-24.079-3.746c0 0-.315-1.514 4.13-3.353 0 0-7.677.32-9.724 2.575 0 0-.463.037-.56.644-.097.606.125 3.088 11.303 4.306s18.93-.426 18.93-.426z" fill="url(#paint2_linear_1_173)"/><path d="M54.298 13.327a21.38 21.38 0 00-12.66 0C30.163 16.897 25.12 30.46 30.39 41.244l15.888 32.567a1.88 1.88 0 003.385 0L65.55 41.244c5.265-10.798.204-24.347-11.252-27.917zm-6.33 27.913a9.873 9.873 0 110-19.746 9.873 9.873 0 010 19.746z" fill="#fff"/><path d="M48.241 46.333c8.007 0 14.498-6.491 14.498-14.498s-6.49-14.498-14.498-14.498c-8.007 0-14.498 6.49-14.498 14.498 0 8.007 6.49 14.498 14.498 14.498z" fill="#fff"/><path d="M33.803 18.712s-7.566 12.655 4.594 28.311l9.034 11.71a.763.763 0 001.157.066l15.24-15.18-15.022 31.025s-1.292 1.473-3.649-3.348c-1.63-3.324-9.715-18.823-14.132-28.52a40.28 40.28 0 01-2.723-8.093l.06-5.298 1.422-5.52 4.019-5.153z" fill="url(#paint3_linear_1_173)"/><path d="M41.592 44.717l13.02-7.872-1.791-3.445 3.269-1.912 4.792 7.45s-6.024 11.998-19.29 5.78z" fill="url(#paint4_linear_1_173)"/><path d="M48.861 17.355l1.816 3.57L47 23.028l-2.084-2.19-10.238 5.87s2.917-8.908 14.184-9.353z" fill="url(#paint5_linear_1_173)"/><path d="M44.259 37.906a6.07 6.07 0 100-12.142 6.07 6.07 0 000 12.142z" fill="url(#paint6_linear_1_173)"/><path d="M44.583 36.118l3.112-5.802a.17.17 0 00-.056-.216.17.17 0 00-.074-.03l-6.552-.768a.167.167 0 00-.19.206c.01.036.03.068.06.09l2.987 2.487a.176.176 0 01.06.111l.338 3.871a.166.166 0 00.315.051z" fill="#fff"/><path d="M51.955 70.167l14.007-28.71a21.15 21.15 0 00.407-17.684 19.068 19.068 0 00-11.932-10.882 21.987 21.987 0 00-12.933 0A19.071 19.071 0 0029.57 23.773a21.162 21.162 0 00.402 17.684l14.013 28.71c-8.752.389-16.846 2.056-16.846 4.838v2.7c0 3.2 10.733 4.927 20.837 4.927s20.837-1.727 20.837-4.927v-2.69c.005-2.778-8.103-4.46-16.86-4.848zM30.807 41.04a20.242 20.242 0 01-.389-16.91 18.165 18.165 0 0111.359-10.363 20.957 20.957 0 0112.382 0A18.144 18.144 0 0165.517 24.13a20.225 20.225 0 01-.384 16.91L50.936 70.126l-.463.926-1.227 2.575a1.418 1.418 0 01-2.552 0l-1.255-2.57-.463-.926-14.169-29.09zm13.618 30.03l1.436 2.945a2.315 2.315 0 002.107 1.32 2.316 2.316 0 002.111-1.32l1.436-2.945c10.229.393 16.378 2.43 16.378 3.936 0 1.666-7.58 3.996-19.911 3.996-12.331 0-19.912-2.316-19.912-3.996-.004-1.505 6.131-3.543 16.355-3.936zm3.552 10.65c-12.336 0-19.911-2.316-19.911-4.001v-1.176c2.806 2.209 11.576 3.385 19.911 3.385s17.105-1.176 19.911-3.385v1.162c.005 1.672-7.575 4-19.911 4v.015z" fill="#B2A175"/><path d="M63.198 31.835A14.961 14.961 0 1048.24 46.796a14.976 14.976 0 0014.957-14.96zM48.24 45.87a13.97 13.97 0 01-5.668-1.2l12.067-7.209a.704.704 0 00.246-.926l-1.635-2.852 2.876-1.686 4.214 6.946a14.05 14.05 0 01-12.1 6.927zm14.03-14.035c0 .906-.088 1.81-.263 2.7l-4.052-6.946a1.07 1.07 0 00-1.473-.384l-5.811 3.408a6.515 6.515 0 00-2.051-3.622l5.913-3.421a1.07 1.07 0 00.38-1.487l-2.126-3.524a14.054 14.054 0 019.484 13.276zm-22.476 4.746l-3.732 2.21a13.998 13.998 0 01-1.556-4.062l3.315-1.852a6.52 6.52 0 001.973 3.704zm-1.144-4.746a5.607 5.607 0 1111.214 0 5.607 5.607 0 01-11.214 0zm9.59-14.03h.352l1.602 2.745a.126.126 0 010 .112.149.149 0 01-.07.092l-3.134 1.783a.142.142 0 01-.162-.008.145.145 0 01-.037-.043l-.996-1.625a1.06 1.06 0 00-1.445-.375l-8.557 4.876a14.044 14.044 0 0112.447-7.557zm-13.095 8.992l9.673-5.496a.157.157 0 01.204.055l.99 1.625a1.065 1.065 0 001.45.375l3.135-1.787a1.075 1.075 0 00.398-1.472l-1.292-2.214c.592.065 1.18.165 1.76.301l2.662 4.385a.152.152 0 010 .111.15.15 0 01-.07.093l-6.222 3.621a6.53 6.53 0 00-10.109 5.441v.051l-3.39 1.852a14.584 14.584 0 01-.134-1.917c.004-1.718.325-3.421.945-5.024zm1.389 12.79l4.01-2.371a6.529 6.529 0 0010.233-5.38v-.195l6.178-3.626a.152.152 0 01.115 0 .129.129 0 01.088.07l4.538 7.755a13.863 13.863 0 01-.847 2.13l-4.047-6.667a.7.7 0 00-.926-.237l-3.274 1.917a.7.7 0 00-.25.927L54 36.739l-12.4 7.409a14.12 14.12 0 01-5.052-4.561h-.014z" fill="#B2A175"/><path d="M44.453 36.683a.625.625 0 00.551-.333l3.103-5.816a.63.63 0 000-.588.621.621 0 00-.463-.334l-6.58-.768a.616.616 0 00-.653.375.63.63 0 00.176.736l2.894 2.403.324 3.75a.63.63 0 00.648.575zm-2.496-6.807l5.126.607-2.426 4.556-.25-2.885a.658.658 0 00-.227-.426l-2.223-1.852z" fill="#B2A175"/><defs><linearGradient id="paint0_linear_1_173" x1="-4.5" y1="68.853" x2="45.131" y2="-9.776" gradientUnits="userSpaceOnUse"><stop stop-color="#E7D5A7"/><stop offset="1" stop-color="#EDE3C9"/></linearGradient><linearGradient id="paint1_linear_1_173" x1="19.349" y1="80.847" x2="20.734" y2="70.081" gradientUnits="userSpaceOnUse"><stop stop-color="#DFCB98"/><stop offset="1" stop-color="#E6D6AD"/></linearGradient><linearGradient id="paint2_linear_1_173" x1="20.383" y1="78.04" x2="22.547" y2="65.478" gradientUnits="userSpaceOnUse"><stop stop-color="#DFCB98"/><stop offset="1" stop-color="#E6D6AD"/></linearGradient><linearGradient id="paint3_linear_1_173" x1="19.755" y1="64.855" x2="65.266" y2="20.781" gradientUnits="userSpaceOnUse"><stop stop-color="#DFCB98"/><stop offset="1" stop-color="#E6D6AD"/></linearGradient><linearGradient id="paint4_linear_1_173" x1="36.95" y1="43.83" x2="46.794" y2="24.478" gradientUnits="userSpaceOnUse"><stop stop-color="#DFCB98"/><stop offset="1" stop-color="#E6D6AD"/></linearGradient><linearGradient id="paint5_linear_1_173" x1="30.829" y1="25.043" x2="35.887" y2="11.802" gradientUnits="userSpaceOnUse"><stop stop-color="#DFCB98"/><stop offset="1" stop-color="#E6D6AD"/></linearGradient><linearGradient id="paint6_linear_1_173" x1="35.267" y1="35.743" x2="44.285" y2="21.941" gradientUnits="userSpaceOnUse"><stop stop-color="#DFCB98"/><stop offset="1" stop-color="#E6D6AD"/></linearGradient><filter id="filter0_d_1_173" x="8.383" y="13.142" width="78.171" height="75.786" filterUnits="userSpaceOnUse" color-interpolation-filters="sRGB"><feFlood flood-opacity="0" result="BackgroundImageFix"/><feColorMatrix in="SourceAlpha" values="0 0 0 0 0 0 0 0 0 0 0 0 0 0 0 0 0 0 127 0" result="hardAlpha"/><feOffset dy="4"/><feGaussianBlur stdDeviation="2"/><feComposite in2="hardAlpha" operator="out"/><feColorMatrix values="0 0 0 0 0 0 0 0 0 0 0 0 0 0 0 0 0 0 0.25 0"/><feBlend in2="BackgroundImageFix" result="effect1_dropShadow_1_173"/><feBlend in="SourceGraphic" in2="effect1_dropShadow_1_173" result="shape"/></filter></defs></svg>