<svg width="140" height="35" fill="none" xmlns="http://www.w3.org/2000/svg"><path fill-rule="evenodd" clip-rule="evenodd" d="M11.396 7.965L5.753 4.193c-7.428 8.501-8.126 18.14.637 26.761-.257-11.105-.193-14.11.319-16.344.512-2.232 2.253-4.982 4.687-6.645z" fill="#E5097F"/><path fill-rule="evenodd" clip-rule="evenodd" d="M13.18 27.742c.137 4.43.08 6.785.08 6.785 11.19 2.018 19.389-2.366 22.487-14.188-9.575 5.84-12.234 7.308-14.444 8.002-2.21.694-5.438.63-8.124-.6z" fill="#00A0E3"/><path fill-rule="evenodd" clip-rule="evenodd" d="M29.575 16.569l6.102-2.995C31.826 3.012 23.663-2.326 11.747.967c9.928 5.238 12.549 6.77 14.267 8.308 1.719 1.537 3.29 4.385 3.56 7.294z" fill="#FFED00"/><path d="M18.129 22.614c2.882 0 5.218-2.306 5.218-5.15 0-2.844-2.336-5.15-5.218-5.15s-5.219 2.306-5.219 5.15c0 2.844 2.337 5.15 5.219 5.15zm26.309-2.386a1.04 1.04 0 01-.76-.304 1.012 1.012 0 01-.309-.75V5.445c0-.31.103-.564.308-.76.206-.196.46-.294.76-.294h4.11c1.027 0 1.938.223 2.733.67a4.778 4.778 0 011.859 1.854c.445.791.668 1.7.668 2.728 0 .986-.223 1.865-.668 2.635a4.699 4.699 0 01-1.86 1.805c-.794.433-1.705.649-2.732.649h-3.041v4.44a1.03 1.03 0 01-1.068 1.055zm1.068-7.442h3.04c.631 0 1.186-.135 1.665-.405a2.96 2.96 0 001.13-1.115c.274-.473.411-1.014.411-1.622 0-.65-.137-1.22-.41-1.714a3.05 3.05 0 00-1.13-1.166c-.48-.284-1.035-.425-1.665-.425h-3.041v6.447zm11.732 7.442a1.04 1.04 0 01-.76-.304 1.012 1.012 0 01-.308-.75V5.445c0-.31.102-.564.308-.76a1.06 1.06 0 01.76-.294h9.287c.315 0 .569.091.76.274.192.182.288.422.288.72a.891.891 0 01-.287.689c-.192.176-.446.264-.76.264h-8.22v4.927h5.898c.315 0 .568.09.76.273a.923.923 0 01.287.7.923.923 0 01-.287.7c-.192.182-.445.273-.76.273h-5.897v5.07h8.218c.315 0 .569.087.76.263a.892.892 0 01.288.69c0 .297-.096.537-.287.719-.192.182-.446.274-.76.274h-9.288zm14.382 0c-.3 0-.554-.102-.76-.304a1.012 1.012 0 01-.308-.75V5.445c0-.31.103-.564.308-.76a1.06 1.06 0 01.76-.294h3.7c1.027 0 1.937.213 2.732.639a4.714 4.714 0 011.86 1.754c.444.743.667 1.608.667 2.595 0 .92-.222 1.737-.668 2.453-.445.717-1.065 1.278-1.86 1.683-.794.406-1.704.609-2.732.609h-2.63v5.048a1.03 1.03 0 01-1.068 1.055zm8.528 0c-.192 0-.367-.04-.524-.122a1.035 1.035 0 01-.401-.385l-3.698-5.88 2.075-.588 3.37 5.353c.246.392.28.76.102 1.105-.178.344-.486.517-.924.517zm-7.459-8.05h2.63c.63 0 1.185-.118 1.665-.355a2.77 2.77 0 001.13-.993c.273-.426.41-.91.41-1.45 0-.595-.137-1.122-.41-1.582a2.864 2.864 0 00-1.13-1.074c-.48-.257-1.035-.385-1.665-.385h-2.63v5.839zm12.678 8.05a1.04 1.04 0 01-.76-.304 1.013 1.013 0 01-.309-.75V5.445c0-.31.103-.564.308-.76a1.06 1.06 0 01.76-.294h9.287c.316 0 .57.091.76.274.193.182.288.422.288.72a.891.891 0 01-.287.689c-.192.176-.445.264-.76.264h-8.219v4.927h5.897c.315 0 .568.09.76.273a.924.924 0 01.288.7.923.923 0 01-.288.7c-.192.182-.445.273-.76.273h-5.897v5.961c0 .298-.103.548-.308.75a1.04 1.04 0 01-.76.305zm14.136 0a1.04 1.04 0 01-.76-.304 1.012 1.012 0 01-.309-.75V5.445c0-.31.103-.564.308-.76.206-.196.46-.294.76-.294h9.288c.315 0 .568.091.76.274.192.182.288.422.288.72a.89.89 0 01-.288.689c-.192.176-.445.264-.76.264h-8.219v4.927h5.897c.315 0 .568.09.76.273a.923.923 0 01.288.7.923.923 0 01-.288.7c-.192.182-.445.273-.76.273h-5.897v5.07h8.219c.315 0 .568.087.76.263a.89.89 0 01.288.69c0 .297-.096.537-.288.719-.192.182-.445.274-.76.274h-9.287zm20.505.202a7.85 7.85 0 01-3.113-.618 7.75 7.75 0 01-2.527-1.723 8 8 0 01-1.685-2.585c-.404-.987-.606-2.055-.606-3.204a8.24 8.24 0 01.606-3.173 8.026 8.026 0 011.685-2.575 7.902 7.902 0 012.517-1.734c.959-.419 2-.629 3.123-.629 1.055 0 1.962.136 2.722.406.761.27 1.524.717 2.291 1.338.11.081.196.166.257.254a.766.766 0 01.124.263c.02.088.03.193.03.315 0 .256-.092.47-.277.638a1.088 1.088 0 01-.668.284c-.26.02-.513-.064-.76-.253a6.114 6.114 0 00-1.572-.994c-.541-.23-1.257-.345-2.147-.345-.808 0-1.568.163-2.281.487a6.027 6.027 0 00-1.88 1.338 6.16 6.16 0 00-1.263 1.977 6.373 6.373 0 00-.452 2.403c0 .865.15 1.673.452 2.423.301.75.722 1.41 1.263 1.977a5.89 5.89 0 001.88 1.328 5.54 5.54 0 002.281.476 5.53 5.53 0 001.983-.355 7.695 7.695 0 001.798-.983c.246-.175.489-.253.729-.233.24.02.442.115.606.284.164.169.247.402.247.7a.996.996 0 01-.083.395 1.105 1.105 0 01-.246.354 8.299 8.299 0 01-2.373 1.318 7.934 7.934 0 01-2.661.447zm13.52-.202c-.302 0-.555-.102-.761-.304a1.014 1.014 0 01-.308-.75V4.391h2.137v14.781c0 .298-.103.548-.308.75a1.04 1.04 0 01-.76.305zm-5.507-13.89a.968.968 0 01-.709-.273.944.944 0 01-.277-.7c0-.284.093-.517.277-.7a.968.968 0 01.709-.273h10.993c.287 0 .524.091.708.274a.937.937 0 01.278.7.937.937 0 01-.278.699.965.965 0 01-.708.274h-10.993zM43.69 32.428a.329.329 0 01-.24-.094.319.319 0 01-.095-.237v-5.962a.32.32 0 01.335-.33h1.718c.424 0 .8.091 1.126.275.327.184.582.437.765.759.184.322.275.695.275 1.12 0 .412-.091.778-.275 1.098a1.99 1.99 0 01-.765.755 2.256 2.256 0 01-1.126.275h-1.383v2.01a.32.32 0 01-.335.33zm.335-2.977h1.383c.293 0 .553-.064.782-.19.23-.128.409-.305.538-.53a1.53 1.53 0 00.193-.773c0-.3-.064-.562-.193-.788a1.405 1.405 0 00-.538-.535 1.557 1.557 0 00-.782-.195h-1.383v3.011zm6.354 2.977c-.132 0-.227-.054-.284-.161a.34.34 0 01-.017-.314l2.527-5.92c.063-.152.172-.229.326-.229.149 0 .255.077.318.23l2.535 5.927a.302.302 0 01-.021.314.314.314 0 01-.28.153.34.34 0 01-.317-.204l-2.364-5.656h.267l-2.38 5.656a.32.32 0 01-.31.204zm.567-1.578l.258-.568h3.489l.258.568h-4.005zm8.571 1.578a.329.329 0 01-.24-.094.319.319 0 01-.095-.237v-5.962a.32.32 0 01.335-.33h1.607c.418 0 .79.085 1.117.258.327.172.583.413.77.72.186.309.279.664.279 1.065a1.894 1.894 0 01-1.049 1.73c-.326.17-.699.255-1.117.255h-1.272v2.264a.32.32 0 01-.335.33zm3.592 0a.316.316 0 01-.176-.043.39.39 0 01-.116-.127l-1.65-2.595.67-.17 1.539 2.426c.086.136.101.254.047.356-.054.102-.159.153-.314.153zm-3.257-3.231h1.272c.292 0 .551-.058.778-.174.226-.116.405-.276.537-.48a1.25 1.25 0 00.198-.695 1.36 1.36 0 00-.198-.733 1.368 1.368 0 00-.537-.497 1.65 1.65 0 00-.778-.178h-1.272v2.756zm8.984 3.23a.325.325 0 01-.236-.097.316.316 0 01-.1-.233v-6.293h.671v6.293c0 .09-.032.168-.095.233a.32.32 0 01-.24.098zm-2.372-6.02a.305.305 0 01-.224-.085.286.286 0 01-.085-.212c0-.09.028-.165.085-.22a.305.305 0 01.224-.086h4.752c.092 0 .167.029.224.085.057.056.086.13.086.22a.286.286 0 01-.086.213.305.305 0 01-.224.084h-4.752zm8.777 6.02a.329.329 0 01-.24-.093.319.319 0 01-.095-.237v-5.962a.32.32 0 01.335-.33c.103 0 .19.039.258.118l4.108 5.326v-5.114a.32.32 0 01.335-.33c.092 0 .17.03.237.093a.312.312 0 01.098.237v5.962a.312.312 0 01-.099.237.333.333 0 01-.236.094.395.395 0 01-.137-.026.236.236 0 01-.112-.084l-4.117-5.326v5.105a.312.312 0 01-.098.237.332.332 0 01-.237.094zm9.482 0a.329.329 0 01-.24-.093.319.319 0 01-.095-.237v-5.962a.32.32 0 01.335-.33h4.03c.093 0 .171.029.237.088a.3.3 0 01.099.234.293.293 0 01-.099.22.333.333 0 01-.236.093h-3.695v2.341h2.69c.097 0 .177.031.24.093a.31.31 0 01.095.23.31.31 0 01-.095.228.329.329 0 01-.24.094h-2.69v2.366h3.695c.091 0 .17.03.236.093a.293.293 0 01.099.22.299.299 0 01-.099.234.341.341 0 01-.236.089h-4.03zm8.34 0a.328.328 0 01-.241-.093.318.318 0 01-.095-.237v-5.962c0-.096.032-.175.095-.238a.328.328 0 01.24-.093h1.607c.419 0 .791.087 1.118.259.326.172.583.413.769.72.186.309.28.664.28 1.065 0 .385-.094.727-.28 1.026-.186.3-.443.535-.77.704a2.38 2.38 0 01-1.117.255h-1.271v2.264a.32.32 0 01-.335.33zm3.592 0a.316.316 0 01-.176-.042.392.392 0 01-.117-.127l-1.65-2.595.67-.17 1.54 2.426c.085.136.1.254.046.356-.054.102-.159.153-.313.153zm-3.257-3.23h1.271c.293 0 .552-.058.778-.174.227-.116.406-.276.537-.48.132-.203.198-.435.198-.695 0-.277-.066-.521-.198-.733a1.368 1.368 0 00-.537-.497 1.65 1.65 0 00-.778-.178h-1.271v2.756zm12.278 3.23a.319.319 0 01-.335-.33v-5.962a.32.32 0 01.335-.33h1.719c.424 0 .799.091 1.125.275.327.184.582.437.765.759.184.322.275.695.275 1.12 0 .412-.091.778-.275 1.098a1.99 1.99 0 01-.765.755 2.252 2.252 0 01-1.125.275h-1.384v2.01a.323.323 0 01-.094.237.332.332 0 01-.241.094zm.335-2.976h1.384c.292 0 .553-.064.782-.19.229-.128.408-.305.537-.53a1.53 1.53 0 00.193-.773c0-.3-.064-.562-.193-.788a1.406 1.406 0 00-.537-.535 1.558 1.558 0 00-.782-.195h-1.384v3.011zm7.317 2.977a.329.329 0 01-.241-.094.32.32 0 01-.095-.237v-5.962a.32.32 0 01.336-.33h1.607c.418 0 .79.085 1.117.258.326.172.583.413.769.72.186.309.279.664.279 1.065 0 .385-.093.727-.279 1.026-.186.3-.443.535-.769.704-.327.17-.699.255-1.117.255h-1.272v2.264a.32.32 0 01-.335.33zm3.592 0a.315.315 0 01-.176-.043.387.387 0 01-.116-.127l-1.651-2.595.671-.17 1.538 2.426c.086.136.102.254.047.356-.054.102-.158.153-.313.153zm-3.257-3.231h1.272c.292 0 .551-.058.777-.174.227-.116.406-.276.537-.48a1.25 1.25 0 00.198-.695 1.36 1.36 0 00-.198-.733 1.358 1.358 0 00-.537-.497 1.646 1.646 0 00-.777-.178h-1.272v2.756zm7.368 3.23a.319.319 0 01-.335-.33v-5.962a.32.32 0 01.335-.33.32.32 0 01.335.33v5.962a.32.32 0 01-.335.33zm4.781 0a.319.319 0 01-.335-.33v-5.962a.32.32 0 01.335-.33c.103 0 .189.039.258.118l4.108 5.326v-5.114a.32.32 0 01.335-.33c.092 0 .17.03.236.093a.312.312 0 01.099.237v5.962a.312.312 0 01-.099.237.332.332 0 01-.236.094.398.398 0 01-.138-.026.23.23 0 01-.111-.084l-4.117-5.326v5.105a.312.312 0 01-.099.237.332.332 0 01-.236.094zm11.098 0a.326.326 0 01-.237-.097.315.315 0 01-.098-.233v-6.293h.67v6.293c0 .09-.032.168-.095.233a.32.32 0 01-.24.098zm-2.372-6.02a.307.307 0 01-.224-.085.286.286 0 01-.085-.212c0-.09.028-.165.085-.22a.306.306 0 01.224-.086h4.752c.092 0 .166.029.224.085.057.056.086.13.086.22a.287.287 0 01-.086.213.307.307 0 01-.224.084h-4.752z" fill="#2B2A29"/></svg>